<?xml version="1.0" encoding="UTF-8"?>
<svg width="30px" height="29px" viewBox="0 0 30 29" version="1.1" xmlns="http://www.w3.org/2000/svg" xmlns:xlink="http://www.w3.org/1999/xlink">
    <!-- Generator: Sketch 52.2 (67145) - http://www.bohemiancoding.com/sketch -->
    <title>Digital Banking</title>
    <desc>Created with Sketch.</desc>
    <g id="Page-1" stroke="none" stroke-width="1" fill="none" fill-rule="evenodd">
        <g id="Desktop-HD" transform="translate(-770.000000, -1920.000000)" fill="#FFFFFF" fill-rule="nonzero">
            <g id="Group-4" transform="translate(482.000000, 1890.000000)">
                <g id="Digital-Banking" transform="translate(288.000000, 30.000000)">
                    <path d="M28.6258065,25.928536 L25.8942928,25.928536 L25.8942928,11.635732 L27.2600496,11.635732 C28.0107535,11.6271517 28.6172261,11.020679 28.6258065,10.2699752 L28.6258065,5.5057072 C28.61441,4.92767647 28.2482655,4.41633673 27.7047146,4.21935484 L15.4764268,0.0744416873 C15.1833953,0.0108360429 14.8801283,0.0108360429 14.5870968,0.0744416873 L2.29528537,4.21935484 C1.73332708,4.39754785 1.34913167,4.91621167 1.34243177,5.5057072 L1.34243177,10.2699752 C1.35101209,11.020679 1.95748473,11.6271517 2.70818859,11.635732 L4.0739454,11.635732 L4.0739454,25.928536 L1.37419355,25.928536 C0.619906879,25.928536 0.00843671836,26.5400061 0.00843671836,27.2942928 C0.00843671836,28.0485795 0.619906879,28.6600496 1.37419355,28.6600496 L28.6258065,28.6600496 C29.3800931,28.6600496 29.9915633,28.0485795 29.9915633,27.2942928 C29.9915633,26.5400061 29.3800931,25.928536 28.6258065,25.928536 Z M10.235732,25.928536 L6.82133996,25.928536 L6.82133996,11.635732 L10.235732,11.635732 L10.235732,25.928536 Z M17.0486352,25.928536 L12.9513648,25.928536 L12.9513648,11.635732 L17.0486352,11.635732 L17.0486352,25.928536 Z M23.17866,25.928536 L19.764268,25.928536 L19.764268,11.635732 L23.17866,11.635732 L23.17866,25.928536 Z" id="Shape"></path>
                </g>
            </g>
        </g>
    </g>
</svg>