<?xml version="1.0" encoding="UTF-8"?>
<svg width="35px" height="31px" viewBox="0 0 35 31" version="1.1" xmlns="http://www.w3.org/2000/svg" xmlns:xlink="http://www.w3.org/1999/xlink">
    <!-- Generator: Sketch 52.2 (67145) - http://www.bohemiancoding.com/sketch -->
    <title>Asset Management</title>
    <desc>Created with Sketch.</desc>
    <g id="Page-1" stroke="none" stroke-width="1" fill="none" fill-rule="evenodd">
        <g id="Desktop-HD" transform="translate(-896.000000, -1919.000000)" fill="#FFFFFF">
            <g id="Group-4" transform="translate(482.000000, 1890.000000)">
                <g id="Asset-Management" transform="translate(414.000000, 29.000000)">
                    <path d="M27.3703516,30.3124609 L7.48117187,30.3124609 C6.423125,30.3124609 5.405625,29.7866797 4.68957031,28.8699219 C4.03421875,28.0308984 3.67332031,26.93625 3.67332031,25.7876562 L3.67332031,16.0594141 L6.17332031,16.0594141 L6.17332031,25.7876562 C6.17332031,26.9808984 6.86257812,27.8124609 7.48117187,27.8124609 L27.3703516,27.8124609 C27.9889453,27.8124609 28.6781641,26.9808984 28.6781641,25.7876562 L28.6781641,15.859375 L31.1781641,15.859375 L31.1781641,25.7876562 C31.1781641,26.93625 30.8172656,28.0308984 30.1619141,28.8699219 C29.4458984,29.7866797 28.4283984,30.3124609 27.3703516,30.3124609 Z" id="Path"></path>
                    <path d="M4.924375,17.1141797 C4.53546875,17.1141797 4.15226562,16.9332813 3.90808594,16.5933203 C3.50535156,16.0326172 3.63339844,15.2516016 4.19410156,14.8488672 L16.6965625,5.86859375 C17.2572656,5.46578125 18.0383203,5.59390625 18.4410547,6.15460938 C18.8438281,6.7153125 18.7157422,7.49636719 18.1550391,7.89910156 L5.65257812,16.8793359 C5.44052906,17.0321473 5.18574849,17.1143134 4.924375,17.1141797 Z" id="Path"></path>
                    <path d="M29.9637891,17.0751172 C29.7024122,17.0752721 29.4476253,16.993104 29.2355859,16.8402734 L16.7331641,7.86 C16.1724609,7.45726562 16.0444141,6.67621094 16.4471484,6.11550781 C16.8499219,5.55480469 17.6310156,5.42679687 18.1916016,5.82949219 L30.6940625,14.8097656 C31.2547656,15.2125 31.3828516,15.9935547 30.9800781,16.5542187 C30.7358984,16.8942187 30.3526172,17.0751172 29.9637891,17.0751172 Z M1.25113281,14.6651953 C0.870664063,14.6651953 0.495,14.4921875 0.249453125,14.1641797 C-0.16421875,13.6115234 -0.0515625,12.828125 0.50109375,12.4144141 L16.7462109,0.254492188 C17.2988281,-0.159140625 18.0822656,-0.0465625 18.4959766,0.506132813 C18.9096875,1.05878906 18.7969922,1.8421875 18.2443359,2.25589844 L1.99921875,14.4158203 C1.78347981,14.5778362 1.52093352,14.6653562 1.25113281,14.6651953 Z" id="Shape" fill-rule="nonzero"></path>
                    <path d="M33.7395312,14.6651953 C33.4697273,14.665376 33.2071749,14.577854 32.9914453,14.4158203 L16.7463672,2.25589844 C16.1937109,1.8421875 16.0810156,1.05878906 16.4947266,0.506132813 C16.9084375,-0.0465625 17.6918359,-0.159179687 18.2444922,0.254492188 L34.4895703,12.4144141 C35.0422266,12.828125 35.1549219,13.6115234 34.7412109,14.1641797 C34.4957031,14.4921875 34.1199609,14.6651953 33.7395312,14.6651953 Z M17.4257812,26.171875 C16.7354297,26.171875 16.1757812,25.6122266 16.1757812,24.921875 L16.1757812,19.6470703 C16.1757812,18.9567188 16.7354297,18.3970703 17.4257812,18.3970703 C18.1161328,18.3970703 18.6757812,18.9567188 18.6757812,19.6470703 L18.6757812,24.921875 C18.6757812,25.6122266 18.1160938,26.171875 17.4257812,26.171875 Z" id="Shape" fill-rule="nonzero"></path>
                    <path d="M21.1328125,19.7460938 L13.75,19.7460938 C13.2646094,19.7460938 12.8710938,19.3526172 12.8710938,18.8671875 C12.8710938,18.3817578 13.2646094,17.9882812 13.75,17.9882812 L21.1328125,17.9882812 C21.6182422,17.9882812 22.0117188,18.3817578 22.0117188,18.8671875 C22.0117188,19.3526172 21.6182422,19.7460938 21.1328125,19.7460938 Z M21.171875,22.9492188 L13.7890625,22.9492188 C13.3036719,22.9492188 12.9101562,22.5557422 12.9101562,22.0703125 C12.9101562,21.5848828 13.3036719,21.1914062 13.7890625,21.1914062 L21.171875,21.1914062 C21.6573047,21.1914062 22.0507812,21.5848828 22.0507812,22.0703125 C22.0507812,22.5557422 21.6573047,22.9492188 21.171875,22.9492188 Z" id="Shape" fill-rule="nonzero"></path>
                    <path d="M17.426875,20.1581641 C17.0292578,20.1581641 16.6383203,19.9688672 16.3959375,19.6165234 L13.8954297,15.981875 C13.5041406,15.413125 13.6480469,14.6348828 14.2167969,14.2435938 C14.7855859,13.8523828 15.5638281,13.9962109 15.9551172,14.5649609 L18.4555859,18.1996094 C18.8469141,18.7683594 18.7030078,19.5466016 18.1342188,19.9378906 C17.9262741,20.0814361 17.6795532,20.1582673 17.426875,20.1581641 Z" id="Path"></path>
                    <path d="M17.6585547,20.2362891 C17.4058549,20.2364159 17.1591109,20.1595682 16.9511719,20.0159766 C16.3824219,19.6246875 16.2385547,18.8464453 16.6298047,18.2776953 L19.1303125,14.6430469 C19.5216016,14.0742969 20.2998828,13.9304297 20.8686328,14.3216797 C21.4373828,14.7129687 21.58125,15.49125 21.1899609,16.0599609 L18.6894531,19.6946094 C18.4471094,20.0469531 18.0560937,20.2362891 17.6585547,20.2362891 Z" id="Path"></path>
                </g>
            </g>
        </g>
    </g>
</svg>