<?xml version="1.0" encoding="UTF-8"?>
<svg width="30px" height="31px" viewBox="0 0 30 31" version="1.1" xmlns="http://www.w3.org/2000/svg" xmlns:xlink="http://www.w3.org/1999/xlink">
    <!-- Generator: Sketch 52.2 (67145) - http://www.bohemiancoding.com/sketch -->
    <title>Trading</title>
    <desc>Created with Sketch.</desc>
    <g id="Page-1" stroke="none" stroke-width="1" fill="none" fill-rule="evenodd">
        <g id="Desktop-HD" transform="translate(-512.000000, -1919.000000)" fill="#302B63">
            <g id="Group-4" transform="translate(482.000000, 1890.000000)">
                <g id="Group-2">
                    <g id="Group-13">
                        <g id="Trading" transform="translate(30.000000, 29.000000)">
                            <path d="M21.5783505,30.8876289 C20.8153916,30.88696 20.1241094,30.4378515 19.8134366,29.7410092 C19.5027639,29.0441669 19.6307531,28.2298032 20.1402062,27.6618557 L24.1979381,23.1556701 L2.24226804,23.1556701 C1.17525773,23.1742268 0.293814433,22.3237113 0.275257732,21.256701 C0.256818021,20.1892779 1.10681587,19.3088241 2.1742268,19.2896907 L27.457732,19.2896907 C28.7897685,19.2869534 29.872195,20.3638433 29.8762887,21.6958763 C29.8762887,22.2958763 29.656701,22.8742268 29.2515464,23.3195876 L23.0164948,30.2474227 C22.6494225,30.6548789 22.1267688,30.8875441 21.5783505,30.8876289 Z" id="Path"></path>
                            <path d="M2.72474227,11.5546392 C1.38865979,11.5546392 0.306185567,10.4721649 0.306185567,9.13917526 C0.306185567,8.54226804 0.525773196,7.96701031 0.924742268,7.52164948 L7.1628866,0.593814433 C7.90608441,-0.172715577 9.12980898,-0.192095831 9.89690722,0.550515464 C10.6228405,1.25593344 10.6834753,2.40125797 10.0360825,3.17938144 L5.9814433,7.68556701 L27.9371134,7.68556701 C29.0041237,7.66701031 29.885567,8.51752577 29.9041237,9.58453608 C29.9226804,10.6515464 29.0721649,11.5329897 28.0051546,11.5515464 L27.9371134,11.5515464 L2.72474227,11.5546392 Z" id="Path"></path>
                        </g>
                    </g>
                </g>
            </g>
        </g>
    </g>
</svg>