<?xml version="1.0" encoding="UTF-8"?>
<svg width="30px" height="29px" viewBox="0 0 30 29" version="1.1" xmlns="http://www.w3.org/2000/svg" xmlns:xlink="http://www.w3.org/1999/xlink">
    <!-- Generator: Sketch 52.2 (67145) - http://www.bohemiancoding.com/sketch -->
    <title>Venture capital</title>
    <desc>Created with Sketch.</desc>
    <g id="Page-1" stroke="none" stroke-width="1" fill="none" fill-rule="evenodd">
        <g id="Desktop-HD" transform="translate(-641.000000, -1920.000000)" fill="#FFFFFF" fill-rule="nonzero">
            <g id="Group-4" transform="translate(482.000000, 1890.000000)">
                <g id="Group-2">
                    <path d="M183.802083,32.3077299 L182.077055,32.3077299 C181.439888,32.3075949 180.923434,31.7910315 180.923434,31.153865 C180.923434,30.5166984 181.439888,30.000135 182.077055,30 L186.692515,30 C187.329777,30 187.84638,30.516603 187.84638,31.153865 L187.84638,35.7693248 C187.846245,36.4064913 187.329681,36.9229453 186.692515,36.9229453 C186.055348,36.9229453 185.538785,36.4064913 185.53865,35.7693248 L185.53865,33.8516013 L175.920031,42.4017406 C175.463577,42.8073807 174.770111,42.7871483 174.338082,42.3555861 L169.314154,37.3305041 L163.199824,42.424818 C162.88459,42.700598 162.444667,42.7839005 162.050431,42.6424638 C161.656194,42.5010271 161.369558,42.1570633 161.301531,41.7437845 C161.233505,41.3305058 161.394772,40.9128164 161.722877,40.6524814 L168.646067,34.8831565 C169.104147,34.5009682 169.778037,34.5309856 170.200323,34.9523884 L175.20002,39.9532392 L183.802083,32.3077299 Z M164.76908,56.5388942 L169.38454,56.5388942 L169.38454,42.6925146 C169.384675,42.0553481 169.901239,41.5388942 170.538405,41.5388942 C171.175572,41.5388942 171.692135,42.0553481 171.69227,42.6925146 L171.69227,56.5388942 L176.30773,56.5388942 L176.30773,49.6157044 C176.307865,48.9785379 176.824428,48.462084 177.461595,48.462084 C178.098761,48.462084 178.615325,48.9785379 178.61546,49.6157044 L178.61546,56.5388942 L183.23092,56.5388942 L183.23092,39.2309197 C183.231055,38.5937532 183.747618,38.0772993 184.384785,38.0772993 C185.021951,38.0772993 185.538515,38.5937532 185.53865,39.2309197 L185.53865,56.5388942 L187.84638,56.5388942 C188.483546,56.5390292 189,57.0555926 189,57.6927591 C189,58.3299257 188.483546,58.846489 187.84638,58.8466241 L160.15362,58.8466241 C159.516454,58.846489 159,58.3299257 159,57.6927591 C159,57.0555926 159.516454,56.5390292 160.15362,56.5388942 L162.46135,56.5388942 L162.46135,47.3079745 C162.461485,46.670808 162.978049,46.1543541 163.615215,46.1543541 C164.252382,46.1543541 164.768945,46.670808 164.76908,47.3079745 L164.76908,56.5388942 Z" id="Venture-capital"></path>
                </g>
            </g>
        </g>
    </g>
</svg>