<?xml version="1.0" encoding="UTF-8"?>
<svg width="307px" height="30px" viewBox="0 0 307 30" version="1.1" xmlns="http://www.w3.org/2000/svg" xmlns:xlink="http://www.w3.org/1999/xlink">
    <!-- Generator: Sketch 52.2 (67145) - http://www.bohemiancoding.com/sketch -->
    <title>Group</title>
    <desc>Created with Sketch.</desc>
    <g id="页面-1" stroke="none" stroke-width="1" fill="none" fill-rule="evenodd">
        <g id="桌面端-HD" transform="translate(-120.000000, -16.000000)" fill="#FFFFFF">
            <g id="Group" transform="translate(120.000000, 16.000000)">
                <path d="M61.656,21 L60.456,21 L60.456,9.8 L61.656,9.8 L61.656,21 Z M72.2,21 L71.032,21 L71.032,16.344 C71.032,14.456 69.912,13.576 68.456,13.576 C67.352,13.576 66.216,14.328 65.576,15.4 L65.576,21 L64.408,21 L64.408,12.728 L65.512,12.728 L65.512,14.04 C66.264,13.128 67.352,12.488 68.744,12.488 C70.44,12.488 72.2,13.56 72.2,16.264 L72.2,21 Z M81.368,21 L80.2,21 L80.2,13.784 L76.472,13.784 L76.472,21 L75.304,21 L75.304,13.784 L73.736,13.784 L73.736,12.728 L75.304,12.728 L75.304,12.168 C75.304,10.36 76.472,9.304 78.264,9.304 C78.648,9.304 79.064,9.336 79.496,9.448 L79.352,10.52 C79,10.44 78.68,10.408 78.376,10.408 C77.064,10.408 76.472,11.16 76.472,12.152 L76.472,12.728 L81.368,12.728 L81.368,21 Z M91.752,21 L90.584,21 L90.584,16.344 C90.584,14.456 89.464,13.576 88.008,13.576 C86.904,13.576 85.768,14.328 85.128,15.4 L85.128,21 L83.96,21 L83.96,12.728 L85.064,12.728 L85.064,14.04 C85.816,13.128 86.904,12.488 88.296,12.488 C89.992,12.488 91.752,13.56 91.752,16.264 L91.752,21 Z M95.352,21 L94.184,21 L94.184,12.728 L95.352,12.728 L95.352,21 Z M94.776,11.304 C94.296,11.304 93.896,10.888 93.896,10.408 C93.896,9.944 94.296,9.544 94.776,9.544 C95.24,9.544 95.64,9.944 95.64,10.408 C95.64,10.888 95.24,11.304 94.776,11.304 Z M102.2,19.816 L102.552,20.76 C102.072,21.032 101.48,21.192 100.936,21.192 C99.624,21.192 98.44,20.408 98.44,18.344 L98.44,13.784 L97.016,13.784 L97.016,12.728 L98.44,12.728 L98.44,10.376 L99.624,10.376 L99.624,12.728 L102.392,12.728 L102.392,13.784 L99.624,13.784 L99.624,18.312 C99.624,19.576 100.28,20.104 101.048,20.104 C101.528,20.104 101.896,19.976 102.2,19.816 Z M110.552,19.032 L111.208,19.832 C110.552,20.552 109.384,21.192 107.88,21.192 C105.368,21.192 103.704,19.352 103.704,16.856 C103.704,14.392 105.336,12.488 107.736,12.488 C110.2,12.488 111.656,14.296 111.528,17.112 L104.888,17.112 C105.016,18.952 106.392,20.088 107.944,20.088 C109.176,20.088 109.96,19.608 110.552,19.032 Z M104.952,16.12 L110.36,16.12 C110.264,14.696 109.32,13.528 107.736,13.528 C106.344,13.528 105.24,14.536 104.952,16.12 Z M121.656,21 L117.896,21 L117.896,9.8 L121.656,9.8 C125,9.8 126.952,12.536 126.952,15.4 C126.952,18.264 125,21 121.656,21 Z M119.096,19.912 L121.624,19.912 C124.04,19.912 125.736,17.912 125.736,15.4 C125.736,12.888 124.04,10.888 121.624,10.888 L119.096,10.888 L119.096,19.912 Z M135.128,19.032 L135.784,19.832 C135.128,20.552 133.96,21.192 132.456,21.192 C129.944,21.192 128.28,19.352 128.28,16.856 C128.28,14.392 129.912,12.488 132.312,12.488 C134.776,12.488 136.232,14.296 136.104,17.112 L129.464,17.112 C129.592,18.952 130.968,20.088 132.52,20.088 C133.752,20.088 134.536,19.608 135.128,19.032 Z M129.528,16.12 L134.936,16.12 C134.84,14.696 133.896,13.528 132.312,13.528 C130.92,13.528 129.816,14.536 129.528,16.12 Z M144.44,18.872 L145.192,19.64 C144.536,20.472 143.352,21.192 141.8,21.192 C139.368,21.192 137.448,19.288 137.448,16.856 C137.448,14.392 139.288,12.488 141.688,12.488 C142.824,12.488 143.944,12.872 144.84,13.64 L144.232,14.568 C143.528,13.976 142.648,13.592 141.688,13.592 C140.12,13.592 138.648,14.936 138.648,16.856 C138.648,18.808 140.2,20.088 141.816,20.088 C143.128,20.088 143.944,19.448 144.44,18.872 Z M153.256,19.032 L153.912,19.832 C153.256,20.552 152.088,21.192 150.584,21.192 C148.072,21.192 146.408,19.352 146.408,16.856 C146.408,14.392 148.04,12.488 150.44,12.488 C152.904,12.488 154.36,14.296 154.232,17.112 L147.592,17.112 C147.72,18.952 149.096,20.088 150.648,20.088 C151.88,20.088 152.664,19.608 153.256,19.032 Z M147.656,16.12 L153.064,16.12 C152.968,14.696 152.024,13.528 150.44,13.528 C149.048,13.528 147.944,14.536 147.656,16.12 Z M163.96,21 L162.792,21 L162.792,16.344 C162.792,14.456 161.672,13.576 160.216,13.576 C159.112,13.576 157.976,14.328 157.336,15.4 L157.336,21 L156.168,21 L156.168,12.728 L157.272,12.728 L157.272,14.04 C158.024,13.128 159.112,12.488 160.504,12.488 C162.2,12.488 163.96,13.56 163.96,16.264 L163.96,21 Z M170.68,19.816 L171.032,20.76 C170.552,21.032 169.96,21.192 169.416,21.192 C168.104,21.192 166.92,20.408 166.92,18.344 L166.92,13.784 L165.496,13.784 L165.496,12.728 L166.92,12.728 L166.92,10.376 L168.104,10.376 L168.104,12.728 L170.872,12.728 L170.872,13.784 L168.104,13.784 L168.104,18.312 C168.104,19.576 168.76,20.104 169.528,20.104 C170.008,20.104 170.376,19.976 170.68,19.816 Z M173.944,21 L172.776,21 L172.776,12.728 L173.864,12.728 L173.864,14.408 C174.488,13.192 175.592,12.568 176.648,12.568 C176.776,12.568 176.92,12.568 177.048,12.584 L177.048,13.736 L176.744,13.736 C175.336,13.736 174.376,14.808 173.944,15.992 L173.944,21 Z M186.392,21 L185.288,21 L185.288,19.72 C184.44,20.648 183.24,21.192 182.056,21.192 C179.528,21.192 178.04,19.128 178.04,16.856 C178.04,14.568 179.528,12.488 182.056,12.488 C183.224,12.488 184.36,12.904 185.288,13.96 L185.288,12.728 L186.392,12.728 L186.392,21 Z M185.224,18.312 L185.224,15.384 C184.664,14.456 183.608,13.576 182.184,13.576 C180.344,13.576 179.24,15.144 179.24,16.856 C179.24,18.552 180.344,20.104 182.184,20.104 C183.608,20.104 184.664,19.24 185.224,18.312 Z M191.992,20.008 L192.168,20.936 C191.848,21.096 191.464,21.16 191.144,21.16 C190.104,21.16 189,20.632 189,18.76 L189,9.8 L190.168,9.8 L190.168,18.792 C190.168,19.64 190.584,20.136 191.272,20.136 C191.592,20.136 191.816,20.072 191.992,20.008 Z M194.872,21 L193.704,21 L193.704,12.728 L194.872,12.728 L194.872,21 Z M194.296,11.304 C193.816,11.304 193.416,10.888 193.416,10.408 C193.416,9.944 193.816,9.544 194.296,9.544 C194.76,9.544 195.16,9.944 195.16,10.408 C195.16,10.888 194.76,11.304 194.296,11.304 Z M204.008,21 L196.744,21 L196.744,20.744 L201.72,13.784 L197.064,13.784 L197.064,12.728 L203.72,12.728 L203.72,13 L198.728,19.928 L204.008,19.928 L204.008,21 Z M213.736,21 L212.632,21 L212.632,19.72 C211.784,20.648 210.584,21.192 209.4,21.192 C206.872,21.192 205.384,19.128 205.384,16.856 C205.384,14.568 206.872,12.488 209.4,12.488 C210.568,12.488 211.704,12.904 212.632,13.96 L212.632,12.728 L213.736,12.728 L213.736,21 Z M212.568,18.312 L212.568,15.384 C212.008,14.456 210.952,13.576 209.528,13.576 C207.688,13.576 206.584,15.144 206.584,16.856 C206.584,18.552 207.688,20.104 209.528,20.104 C210.952,20.104 212.008,19.24 212.568,18.312 Z M220.616,19.816 L220.968,20.76 C220.488,21.032 219.896,21.192 219.352,21.192 C218.04,21.192 216.856,20.408 216.856,18.344 L216.856,13.784 L215.432,13.784 L215.432,12.728 L216.856,12.728 L216.856,10.376 L218.04,10.376 L218.04,12.728 L220.808,12.728 L220.808,13.784 L218.04,13.784 L218.04,18.312 C218.04,19.576 218.696,20.104 219.464,20.104 C219.944,20.104 220.312,19.976 220.616,19.816 Z M223.864,21 L222.696,21 L222.696,12.728 L223.864,12.728 L223.864,21 Z M223.288,11.304 C222.808,11.304 222.408,10.888 222.408,10.408 C222.408,9.944 222.808,9.544 223.288,9.544 C223.752,9.544 224.152,9.944 224.152,10.408 C224.152,10.888 223.752,11.304 223.288,11.304 Z M230.104,20.088 C231.656,20.088 233.176,18.792 233.176,16.84 C233.176,14.888 231.656,13.592 230.104,13.592 C228.552,13.592 227.032,14.888 227.032,16.84 C227.032,18.792 228.552,20.088 230.104,20.088 Z M230.104,21.192 C227.944,21.192 225.848,19.576 225.848,16.84 C225.848,14.12 227.944,12.488 230.104,12.488 C232.264,12.488 234.376,14.12 234.376,16.84 C234.376,19.576 232.264,21.192 230.104,21.192 Z M244.152,21 L242.984,21 L242.984,16.344 C242.984,14.456 241.864,13.576 240.408,13.576 C239.304,13.576 238.168,14.328 237.528,15.4 L237.528,21 L236.36,21 L236.36,12.728 L237.464,12.728 L237.464,14.04 C238.216,13.128 239.304,12.488 240.696,12.488 C242.392,12.488 244.152,13.56 244.152,16.264 L244.152,21 Z M259.608,18.36 L260.296,19.272 C259.528,20.12 257.896,21.192 255.96,21.192 C252.328,21.192 250.2,18.344 250.2,15.384 C250.2,12.536 252.296,9.608 255.896,9.608 C257.608,9.608 258.952,10.28 259.832,11.096 L259.16,12.008 C258.216,11.144 257.032,10.76 255.864,10.76 C253.064,10.76 251.416,13.048 251.416,15.368 C251.416,17.736 253.144,20.056 255.992,20.056 C257.512,20.056 258.856,19.304 259.608,18.36 Z M269.64,21 L268.536,21 L268.536,19.72 C267.688,20.648 266.488,21.192 265.304,21.192 C262.776,21.192 261.288,19.128 261.288,16.856 C261.288,14.568 262.776,12.488 265.304,12.488 C266.472,12.488 267.608,12.904 268.536,13.96 L268.536,12.728 L269.64,12.728 L269.64,21 Z M268.472,18.312 L268.472,15.384 C267.912,14.456 266.856,13.576 265.432,13.576 C263.592,13.576 262.488,15.144 262.488,16.856 C262.488,18.552 263.592,20.104 265.432,20.104 C266.856,20.104 267.912,19.24 268.472,18.312 Z M273.4,24.76 L272.248,24.76 L272.248,12.728 L273.368,12.728 L273.368,13.976 C274.2,13.048 275.336,12.488 276.584,12.488 C279.128,12.488 280.616,14.552 280.616,16.824 C280.616,19.128 279.128,21.192 276.584,21.192 C275.432,21.192 274.296,20.792 273.4,19.752 L273.4,24.76 Z M273.416,15.384 L273.416,18.312 C273.976,19.24 275.032,20.104 276.456,20.104 C278.296,20.104 279.4,18.536 279.4,16.824 C279.4,15.128 278.296,13.576 276.456,13.576 C275.048,13.576 274.008,14.472 273.416,15.384 Z M283.768,21 L282.6,21 L282.6,12.728 L283.768,12.728 L283.768,21 Z M283.192,11.304 C282.712,11.304 282.312,10.888 282.312,10.408 C282.312,9.944 282.712,9.544 283.192,9.544 C283.656,9.544 284.056,9.944 284.056,10.408 C284.056,10.888 283.656,11.304 283.192,11.304 Z M290.616,19.816 L290.968,20.76 C290.488,21.032 289.896,21.192 289.352,21.192 C288.04,21.192 286.856,20.408 286.856,18.344 L286.856,13.784 L285.432,13.784 L285.432,12.728 L286.856,12.728 L286.856,10.376 L288.04,10.376 L288.04,12.728 L290.808,12.728 L290.808,13.784 L288.04,13.784 L288.04,18.312 C288.04,19.576 288.696,20.104 289.464,20.104 C289.944,20.104 290.312,19.976 290.616,19.816 Z M300.472,21 L299.368,21 L299.368,19.72 C298.52,20.648 297.32,21.192 296.136,21.192 C293.608,21.192 292.12,19.128 292.12,16.856 C292.12,14.568 293.608,12.488 296.136,12.488 C297.304,12.488 298.44,12.904 299.368,13.96 L299.368,12.728 L300.472,12.728 L300.472,21 Z M299.304,18.312 L299.304,15.384 C298.744,14.456 297.688,13.576 296.264,13.576 C294.424,13.576 293.32,15.144 293.32,16.856 C293.32,18.552 294.424,20.104 296.264,20.104 C297.688,20.104 298.744,19.24 299.304,18.312 Z M306.072,20.008 L306.248,20.936 C305.928,21.096 305.544,21.16 305.224,21.16 C304.184,21.16 303.08,20.632 303.08,18.76 L303.08,9.8 L304.248,9.8 L304.248,18.792 C304.248,19.64 304.664,20.136 305.352,20.136 C305.672,20.136 305.896,20.072 306.072,20.008 Z" id="Infinite-Decentraliz"></path>
                <g id="Infinite-Decentralization-Capital_画板-1" transform="translate(-0.000000, 0.000000)" fill-rule="nonzero">
                    <path d="M11.4504425,0.615929204 L7.82787611,0.615929204 L7.82787611,5.76106195 L11.2858407,5.76106195 C15.9783186,5.76106195 19.8477876,9.79513274 19.8477876,15.0238938 C19.8477876,20.2526549 15.9783186,24.2867257 11.2858407,24.2867257 L7.82787611,24.2867257 L7.82787611,29.4318584 L11.4504425,29.4318584 C20.6721239,29.4318584 25.6938053,22.3924779 25.6938053,15.0238938 C25.6938053,7.65530973 20.6707965,0.615929204 11.4504425,0.615929204 Z" id="路径"></path>
                    <g id="编组" transform="translate(0.000000, 0.530973)">
                        <rect id="矩形" x="0.103539823" y="7.20663717" width="5.84469027" height="21.6929204"></rect>
                        <rect id="矩形" x="0.103539823" y="0.0849557522" width="5.84469027" height="5.14911504"></rect>
                    </g>
                    <path d="M27.0438053,10.4469027 C28.4349558,7.68185841 31.1256637,5.7199115 34.7097345,5.7199115 C36.9743363,5.7199115 39.8561947,6.54292035 42.3663717,8.72522124 L45.7831858,4.44424779 C43.1482301,1.89159292 39.4446903,0.122123894 34.9977876,0.122123894 C30.3504425,0.122123894 26.6561947,1.96460177 24.1022124,4.70442478 C25.4309735,6.38628319 26.4411504,8.32964602 27.0438053,10.4469027 Z" id="路径"></path>
                    <path d="M42.7792035,20.8274336 C41.0920354,22.7615044 38.6628319,24.3265487 34.9579646,24.3265487 C31.3035398,24.3265487 28.5119469,22.3115044 27.0716814,19.5053097 C26.4557522,21.7154867 25.3977876,23.7411504 23.9960177,25.4787611 C26.4557522,28.1654867 30.0106195,29.9243363 34.5039823,29.9243363 C39.2787611,29.9243363 44.0137168,27.7022124 46.359292,25.0261062 L42.7792035,20.8274336 Z" id="路径"></path>
                </g>
            </g>
        </g>
    </g>
</svg>