<?xml version="1.0" encoding="UTF-8"?>
<svg width="47px" height="30px" viewBox="0 0 47 30" version="1.1" xmlns="http://www.w3.org/2000/svg" xmlns:xlink="http://www.w3.org/1999/xlink">
    <!-- Generator: Sketch 52.2 (67145) - http://www.bohemiancoding.com/sketch -->
    <title>Infinite Decentralization Capital_画板 1</title>
    <desc>Created with Sketch.</desc>
    <g id="页面-1" stroke="none" stroke-width="1" fill="none" fill-rule="evenodd">
        <g id="桌面端-HD" transform="translate(-120.000000, -1731.000000)" fill="#1C2337" fill-rule="nonzero">
            <g id="Infinite-Decentralization-Capital_画板-1" transform="translate(120.000000, 1731.000000)">
                <path d="M11.4504425,0.615929204 L7.82787611,0.615929204 L7.82787611,5.76106195 L11.2858407,5.76106195 C15.9783186,5.76106195 19.8477876,9.79513274 19.8477876,15.0238938 C19.8477876,20.2526549 15.9783186,24.2867257 11.2858407,24.2867257 L7.82787611,24.2867257 L7.82787611,29.4318584 L11.4504425,29.4318584 C20.6721239,29.4318584 25.6938053,22.3924779 25.6938053,15.0238938 C25.6938053,7.65530973 20.6707965,0.615929204 11.4504425,0.615929204 Z" id="路径"></path>
                <g id="编组" transform="translate(0.000000, 0.530973)">
                    <rect id="矩形" x="0.103539823" y="7.20663717" width="5.84469027" height="21.6929204"></rect>
                    <rect id="矩形" x="0.103539823" y="0.0849557522" width="5.84469027" height="5.14911504"></rect>
                </g>
                <path d="M27.0438053,10.4469027 C28.4349558,7.68185841 31.1256637,5.7199115 34.7097345,5.7199115 C36.9743363,5.7199115 39.8561947,6.54292035 42.3663717,8.72522124 L45.7831858,4.44424779 C43.1482301,1.89159292 39.4446903,0.122123894 34.9977876,0.122123894 C30.3504425,0.122123894 26.6561947,1.96460177 24.1022124,4.70442478 C25.4309735,6.38628319 26.4411504,8.32964602 27.0438053,10.4469027 Z" id="路径"></path>
                <path d="M42.7792035,20.8274336 C41.0920354,22.7615044 38.6628319,24.3265487 34.9579646,24.3265487 C31.3035398,24.3265487 28.5119469,22.3115044 27.0716814,19.5053097 C26.4557522,21.7154867 25.3977876,23.7411504 23.9960177,25.4787611 C26.4557522,28.1654867 30.0106195,29.9243363 34.5039823,29.9243363 C39.2787611,29.9243363 44.0137168,27.7022124 46.359292,25.0261062 L42.7792035,20.8274336 Z" id="路径"></path>
            </g>
        </g>
    </g>
</svg>