<?xml version="1.0" encoding="UTF-8"?>
<svg width="51px" height="50px" viewBox="0 0 51 50" version="1.1" xmlns="http://www.w3.org/2000/svg" xmlns:xlink="http://www.w3.org/1999/xlink">
    <!-- Generator: Sketch 52.2 (67145) - http://www.bohemiancoding.com/sketch -->
    <title>项目</title>
    <desc>Created with Sketch.</desc>
    <g id="Page-1" stroke="none" stroke-width="1" fill="none" fill-rule="evenodd">
        <g id="Desktop-HD" transform="translate(-780.000000, -1287.000000)" fill="#484469" fill-rule="nonzero">
            <g id="Group-15" transform="translate(780.000000, 1287.000000)">
                <g id="项目" transform="translate(0.000000, 0.000000)">
                    <path d="M0.0121894091,6.35767904 L11.5600344,6.35767904 L11.5600344,43.5700892 L0.0121894091,43.5700892 L0.0121894091,6.35767904 Z M14.1289665,10.2127028 L21.8311424,10.2127028 L21.8311424,43.5716863 L14.1289665,43.5716863 L14.1289665,10.2127028 Z M25.4637083,18.5516216 L32.7320914,18.5516216 L32.7320914,43.5716293 L25.4637083,43.5716293 L25.4637083,18.5516216 Z M2.58271862,0.049572408 L8.99885987,0.049572408 C10.4118096,0.049572408 11.5599774,1.00665463 11.5599774,2.18545318 L11.5599774,4.32909142 L0.0121894091,4.32909142 L0.0121894091,2.18545318 C0.0121894091,1.00671165 1.16509158,0.049572408 2.58271862,0.049572408 Z M16.690141,4.32909142 L19.2606702,4.32909142 C20.6767001,4.32909142 21.8311424,5.28617363 21.8311424,6.46571371 L21.8311424,8.60239303 L14.1289665,8.60239303 L14.1289665,6.46571371 C14.1289665,5.28617363 15.2771914,4.32909142 16.690141,4.32909142 Z M28.0265941,11.5966189 L30.5954691,11.5966189 C32.011442,11.5966189 33.1644582,12.5544997 33.1644582,13.7395156 L33.1644582,15.8761379 L25.4637083,15.8761379 L25.4637083,13.7395156 C25.4637083,12.5544997 26.610393,11.5966189 28.0265941,11.5966189 Z M49.4430124,42.9936381 L41.8801294,44.4299744 L35.6833088,11.6396844 L43.2522381,10.2126458 L49.4430124,42.9936381 Z M37.118219,5.38719231 L39.6370125,4.91101839 C41.0280016,4.64783361 42.337537,5.37464342 42.5568006,6.53461862 L42.9514637,8.63912709 L35.3888658,10.0677059 C35.3888658,10.0677059 35.2069637,9.12779287 34.9877001,7.96165736 C34.7684935,6.80407781 35.7208414,5.65037709 37.118219,5.38719231 Z M49.7624962,44.6807813 C49.7624962,44.6807813 49.9379527,45.6206944 50.1572733,46.7782168 C50.3765939,47.9373934 49.424075,49.0981672 48.0330288,49.3612378 L45.5142353,49.8373547 C44.1169717,50.1005965 42.8137109,49.3738438 42.5944473,48.2069097 L42.1935098,46.1078201 L49.7624962,44.6807813 Z M33.1644582,45.7129858 L33.1644582,47.8496081 C33.1644582,49.0354227 32.011442,49.9862875 30.5954691,49.9862875 L28.026594,49.9862875 C26.610393,49.9862875 25.4637082,49.0354227 25.4637082,47.8496081 L25.4637082,45.7129858 L33.1644582,45.7129858 Z M21.8311994,45.7129858 L21.8311994,47.8496081 C21.8311994,49.0354227 20.6767002,49.9862875 19.2607273,49.9862875 L16.690141,49.9862875 C15.2771913,49.9862875 14.1290235,49.0354227 14.1290235,47.8496081 L14.1290235,45.7129858 L21.8311994,45.7129858 Z M11.5600344,45.7129858 L11.5600344,47.8496081 C11.5600344,49.0354227 10.4118667,49.9862875 8.99891695,49.9862875 L2.58271862,49.9862875 C1.16509158,49.9862875 0.0121894091,49.0354227 0.0121894091,47.8496081 L0.0121894091,45.7129858 L11.5600344,45.7129858 Z" id="Shape"></path>
                </g>
            </g>
        </g>
    </g>
</svg>