<?xml version="1.0" encoding="UTF-8"?>
<svg width="50px" height="42px" viewBox="0 0 50 42" version="1.1" xmlns="http://www.w3.org/2000/svg" xmlns:xlink="http://www.w3.org/1999/xlink">
    <!-- Generator: Sketch 52.2 (67145) - http://www.bohemiancoding.com/sketch -->
    <title>数据驱动</title>
    <desc>Created with Sketch.</desc>
    <g id="Page-1" stroke="none" stroke-width="1" fill="none" fill-rule="evenodd">
        <g id="Desktop-HD" transform="translate(-210.000000, -1291.000000)" fill="#484469" fill-rule="nonzero">
            <g id="Group-14" transform="translate(210.000000, 1291.000000)">
                <g id="数据驱动" transform="translate(0.000000, 0.000000)">
                    <path d="M31.8375502,7.02721464 C31.8375502,8.32067913 32.8861104,9.36923928 34.1795749,9.36923928 C35.4730394,9.36923928 36.5215995,8.32067913 36.5215995,7.02721464 C36.5215995,5.73375015 35.4730394,4.68519 34.1795749,4.68519 C32.8861104,4.68519 31.8375502,5.73375015 31.8375502,7.02721464 Z M10.9154824,34.1634535 C10.9154824,35.456918 11.9640425,36.5054781 13.257507,36.5054781 C14.5509715,36.5054781 15.5995316,35.456918 15.5995316,34.1634535 C15.5995316,32.869989 14.5509715,31.8214289 13.257507,31.8214289 C11.9640425,31.8214289 10.9154824,32.869989 10.9154824,34.1634535 Z M13.304329,14.0532885 C16.2763878,14.0618661 18.9247839,12.1791119 19.8931965,9.3692393 L27.2628328,9.3692393 C28.5562973,9.36923927 29.6048574,8.32067913 29.6048574,7.02721466 C29.6048574,5.73375019 28.5562973,4.68519005 27.2628328,4.68519002 L19.9244112,4.68519002 C18.7332039,1.31594911 15.2027354,-0.622405152 11.7205954,0.180999945 C8.23845534,0.984405042 5.91409449,4.27359519 6.31943456,7.82415268 C6.72477463,11.3747102 9.73066951,14.0553857 13.3042888,14.0532885 L13.304329,14.0532885 Z M12.1333368,4.99745732 C13.2363205,4.40194247 14.6126471,4.78044557 15.2560095,5.85622245 C15.8515314,6.95919588 15.4730468,8.33551945 14.3972846,8.97889513 C13.2943111,9.574417 11.9179875,9.19593244 11.2746119,8.12017019 C10.67909,7.01719677 11.0575746,5.64087322 12.1333368,4.99749755 L12.1333368,4.99745732 Z M49.0591927,14.1313654 C47.7373177,11.8354283 45.2317778,10.4833207 42.5870587,10.6386966 C39.9423397,10.7940724 37.6123607,12.4302641 36.5684215,14.8651915 L26.6538653,14.8651915 L20.4084797,21.1105771 L13.4760901,21.1105771 C13.3811476,20.8598064 13.2716704,20.6147823 13.1482155,20.376751 C11.4785742,17.4698346 7.99112898,16.1429696 4.81147252,17.2048783 C1.63181606,18.2667869 -0.358408179,21.4230271 0.0538385028,24.7498752 C0.466085185,28.0767232 3.16649653,30.6517229 6.50917588,30.9054157 C9.85185522,31.1591086 12.9099567,29.0211516 13.819572,25.7946263 L22.3445529,25.7946263 L28.5899385,19.5492407 L36.2249396,19.5492407 C36.9855761,22.1343981 39.1606732,24.0547507 41.8201647,24.4891602 C44.4796561,24.9235698 47.1527515,23.795136 48.6964415,21.5863745 C50.2401315,19.3776129 50.381148,16.4795246 49.0591927,14.1313252 L49.0591927,14.1313654 Z M9.32289115,24.4986951 C9.16299865,25.0992782 8.76944335,25.6109146 8.22997582,25.9195252 C7.12700239,26.515047 5.75067882,26.1365625 5.10730314,25.0608002 C4.51178127,23.9578268 4.89026583,22.5815032 5.96602808,21.9381276 C7.06900151,21.3426057 8.44532509,21.7210902 9.08870076,22.7968525 C9.38102228,23.3134815 9.46480327,23.9223112 9.32289115,24.4986951 Z M44.1409933,19.6741798 C43.0380199,20.2697017 41.6616963,19.8912171 41.0183206,18.8154549 C40.4227726,17.712472 40.8012602,16.3361196 41.8770455,15.692742 C42.9800189,15.0972201 44.3563425,15.4757047 44.9997182,16.5514669 C45.5952662,17.6544498 45.2167786,19.0308022 44.1409933,19.6741798 Z M36.7245753,27.1373796 C33.7482872,27.126876 31.0943438,29.0091037 30.1200602,31.8214288 C29.9643122,31.805775 29.8073871,31.805775 29.6516391,31.8214288 L20.3304029,31.8214288 C19.0369384,31.8214288 17.9883782,32.869989 17.9883782,34.1634535 C17.9883782,35.456918 19.0369384,36.5054781 20.3304029,36.5054781 L30.1356675,36.5054781 C31.3268747,39.874719 34.8573433,41.8130733 38.3394833,41.0096682 C41.8216233,40.2062631 44.1459842,36.9170729 43.7406441,33.3665155 C43.3353041,29.815958 40.3294092,27.1352825 36.7557899,27.1373796 L36.7245753,27.1373796 Z M37.8955675,36.1932108 C36.7925838,36.7887257 35.4162571,36.4102226 34.7728948,35.3344457 C34.1773729,34.2314723 34.5558575,32.8551487 35.6316197,32.211773 C36.7345931,31.6162511 38.1109167,31.9947357 38.7542924,33.0704979 C39.3498142,34.1734714 38.9713297,35.5497949 37.8955675,36.1931706 L37.8955675,36.1932108 Z" id="Shape"></path>
                </g>
            </g>
        </g>
    </g>
</svg>