<?xml version="1.0" encoding="UTF-8"?>
<svg width="50px" height="41px" viewBox="0 0 50 41" version="1.1" xmlns="http://www.w3.org/2000/svg" xmlns:xlink="http://www.w3.org/1999/xlink">
    <!-- Generator: Sketch 52.2 (67145) - http://www.bohemiancoding.com/sketch -->
    <title>投资</title>
    <desc>Created with Sketch.</desc>
    <g id="Page-1" stroke="none" stroke-width="1" fill="none" fill-rule="evenodd">
        <g id="Desktop-HD" transform="translate(-780.000000, -1465.000000)" fill="#484469">
            <g id="Group-17" transform="translate(780.000000, 1465.000000)">
                <g id="投资" transform="translate(0.000000, 0.000000)">
                    <path d="M12.5397787,23.6042542 L12.5397787,40.2524589 L19.9710239,40.2524589 L19.9710239,23.7035667 L16.2582661,20.5599456 L12.5397787,23.6042542 Z M0.0588772403,40.2524589 L7.49012248,40.2524589 L7.49012248,27.7467294 L0.0607871176,33.8391664 L0.0607871176,40.2524589 L0.0588772403,40.2524589 Z M37.5034915,19.8361106 L37.5034915,40.2524589 L44.9366465,40.2524589 L44.9366465,13.4724742 L37.5034915,19.8361106 Z M25.02259,27.9778218 L25.02259,40.2524589 L32.4519254,40.2524589 L32.4519254,24.1581121 L26.5122768,29.2421457 L25.02259,27.9778218 Z" id="Shape" fill-rule="nonzero"></path>
                    <polygon id="Path" opacity="0.396" points="49.825875 0.0156369403 35.5745381 0.0156369403 41.6192286 5.92663771 26.5122768 18.8601748 16.2582661 10.1741549 0.0168604336 23.4934826 0.0168604336 29.2459654 16.2582661 15.9266377 26.5141866 24.6107477 44.7609399 8.9938646 49.825875 13.9461182"></polygon>
                </g>
            </g>
        </g>
    </g>
</svg>