<?xml version="1.0" encoding="UTF-8"?>
<svg width="50px" height="44px" viewBox="0 0 50 44" version="1.1" xmlns="http://www.w3.org/2000/svg" xmlns:xlink="http://www.w3.org/1999/xlink">
    <!-- Generator: Sketch 52.2 (67145) - http://www.bohemiancoding.com/sketch -->
    <title>Shape</title>
    <desc>Created with Sketch.</desc>
    <g id="Page-1" stroke="none" stroke-width="1" fill="none" fill-rule="evenodd">
        <g id="Desktop-HD" transform="translate(-210.000000, -1464.000000)" fill="#484469" fill-rule="nonzero">
            <g id="Group-16" transform="translate(210.000000, 1464.000000)">
                <path d="M49.6397075,16.5371908 L40.9030784,1.24808987 C40.5910559,0.312022468 39.967011,-2.84217094e-14 39.0309436,-2.84217094e-14 L10.9489214,-2.84217094e-14 C10.012854,-2.84217094e-14 9.38880909,0.312022468 9.07678663,1.24808987 L0.340157517,16.5371908 C-0.28388742,17.4732582 0.0281350484,18.4093256 0.652179985,19.0333706 L23.4298202,43.0591006 C24.3658876,43.995168 25.6139774,43.995168 26.5500448,43.3711231 L26.8620673,43.0591006 L49.6397075,19.0333706 C49.95173,18.4093256 50.2637524,17.4732582 49.6397075,16.5371908 Z M39.967011,17.4732582 L26.5500448,31.2022468 C25.6139774,32.1383142 24.3658876,32.1383142 23.4298202,31.2022468 L23.1177977,31.2022468 L10.012854,17.4732582 C9.07678663,16.5371908 9.38880909,15.2891009 10.3248765,14.3530335 C11.2609439,13.4169661 12.8210562,13.7289886 13.4451012,14.3530335 L24.9899325,26.8339323 L36.5347638,14.9770785 C37.4708312,14.0410111 38.7189211,14.0410111 39.6549885,14.665056 C40.9030784,15.2891009 40.9030784,16.5371908 39.967011,17.4732582 Z" id="Shape"></path>
            </g>
        </g>
    </g>
</svg>