<?xml version="1.0" encoding="UTF-8"?>
<svg width="127px" height="30px" viewBox="0 0 127 30" version="1.1" xmlns="http://www.w3.org/2000/svg" xmlns:xlink="http://www.w3.org/1999/xlink">
    <!-- Generator: Sketch 52.2 (67145) - http://www.bohemiancoding.com/sketch -->
    <title>编组</title>
    <desc>Created with Sketch.</desc>
    <defs>
        <polygon id="path-1" points="0.000142857143 0.704285714 122.6835 0.704285714 122.6835 28.9688869 0.000142857143 28.9688869"></polygon>
        <polygon id="path-3" points="0.569121389 0.634125839 4.2 0.634125839 4.2 4.28571429 0.569121389 4.28571429"></polygon>
    </defs>
    <g id="页面-1" stroke="none" stroke-width="1" fill="none" fill-rule="evenodd">
        <g id="桌面端-HD" transform="translate(-125.000000, -1184.000000)">
            <g id="编组" transform="translate(125.000000, 1184.000000)">
                <g transform="translate(0.000000, 0.010214)">
                    <mask id="mask-2" fill="white">
                        <use xlink:href="#path-1"></use>
                    </mask>
                    <g id="Clip-2"></g>
                    <path d="M10.8408571,0.703928571 C4.863,0.726071429 0.0222857143,5.56678571 0.000142857143,11.5446429 C0.000142857143,12.7425 0.193,13.9317857 0.571571429,15.0675 C0.853714286,15.8396429 1.68871429,16.2567857 2.47585714,16.0196429 C3.23871429,15.7296429 3.64442857,14.8953571 3.40014286,14.1153571 C3.07871429,13.2325 2.93514286,12.2939286 2.97871429,11.3546429 C3.10657143,7.03678571 6.71085714,3.64035714 11.0287143,3.76892857 C15.3465714,3.89678571 18.743,7.50107143 18.6144286,11.8182143 C18.4944286,15.8632143 15.3087143,19.1482143 11.2694286,19.3932143 C11.2694286,19.3932143 9.753,19.4889286 8.99085714,19.5839286 C8.71157143,19.6232143 8.43442857,19.6775 8.16157143,19.7467857 C8.11657143,19.7810714 8.05228571,19.7710714 8.018,19.7267857 C7.99085714,19.6903571 7.99085714,19.6403571 8.018,19.6039286 L8.25657143,18.3189286 L9.68442857,11.8510714 C9.85585714,11.0489286 9.34371429,10.2603571 8.54228571,10.0896429 C7.74014286,9.91821429 6.95157143,10.4303571 6.78014286,11.2317857 C6.78014286,11.2317857 3.38014286,27.0246429 3.38014286,27.1667857 C3.19014286,27.9403571 3.663,28.7217857 4.43585714,28.9110714 C4.46228571,28.9175 4.48871429,28.9232143 4.51585714,28.9289286 C5.29371429,29.1146429 6.07585714,28.6353571 6.26228571,27.8575 C6.268,27.8332143 6.273,27.8096429 6.27728571,27.7860714 C6.32514286,27.5953571 6.753,25.5010714 6.753,25.5010714 C7.07657143,23.9217857 8.34942857,22.7110714 9.943,22.4675 C10.2694286,22.4196429 11.6501429,22.3246429 11.6501429,22.3246429 C17.6087143,21.7739286 21.9915714,16.4975 21.4408571,10.5396429 C20.9322857,5.0375 16.3651429,0.799642857 10.8408571,0.703928571 Z M42.4722857,5.2675 C41.758,5.25678571 41.138,5.7575 40.9965714,6.4575 L36.5758571,27.0989286 C36.4037143,27.9067857 36.918,28.7017857 37.7265714,28.8746429 C37.8308571,28.8975 37.938,28.9082143 38.0451429,28.9075 C38.7594286,28.9189286 39.3801429,28.4182143 39.5208571,27.7175 L43.9487143,7.07678571 C44.1058571,6.25035714 43.5644286,5.45178571 42.738,5.29464286 C42.6501429,5.2775 42.5615714,5.26892857 42.4722857,5.2675 Z M104.573,21.9160714 C104.113,22.8989286 103.537286,23.8232143 102.859429,24.6710714 C102.104429,25.4739286 101.056571,25.9375 99.9551429,25.9567857 C99.2208571,25.9967857 98.513,25.6767857 98.0572857,25.0989286 C97.5594286,24.4125 97.3187143,23.5725 97.3772857,22.7260714 C97.3115714,20.9167857 97.8265714,19.1346429 98.8465714,17.6389286 C99.6694286,16.3603571 101.087286,15.5910714 102.607286,15.5982143 C104.321571,15.5982143 105.178714,16.6432143 105.178714,18.7332143 C105.145857,19.8232143 104.929429,20.8989286 104.538714,21.9160714 L104.573,21.9160714 Z M88.0187143,18.3460714 C87.4958571,20.9639286 86.6587143,22.8682143 85.6865714,24.1067857 C84.7137143,25.3439286 83.5987143,25.9567857 82.4558571,25.9567857 C81.7872857,25.9432143 81.1737143,25.5817857 80.8372857,25.0046429 C80.4087143,24.2539286 80.1944286,23.3989286 80.218,22.5353571 C80.1294286,20.7517857 80.6501429,18.9925 81.6944286,17.5432143 C83.0215714,15.5032143 85.7515714,14.9260714 87.7922857,16.2539286 C87.9901429,16.3825 88.1772857,16.5275 88.3522857,16.6867857 L88.0187143,18.3460714 Z M121.738714,20.1546429 C121.017286,19.9053571 120.225143,20.2596429 119.929429,20.9639286 C118.603714,24.2967857 116.985143,25.9567857 114.985143,25.9567857 C113.938,25.9567857 113.414429,25.0517857 113.414429,23.3446429 C113.544429,21.4075 113.825857,19.4839286 114.258,17.5910714 L114.685857,15.5917857 L118.766571,15.5917857 C119.468714,15.5982143 120.070857,15.0939286 120.188,14.4010714 C120.350143,13.6060714 119.835857,12.8310714 119.041571,12.6689286 C118.950857,12.6510714 118.858714,12.6410714 118.766571,12.6396429 L115.365857,12.6396429 L116.046571,9.31392857 C116.223,8.48392857 115.693,7.6675 114.863,7.49107143 C114.767286,7.47035714 114.668714,7.45964286 114.570143,7.4575 C113.855857,7.44678571 113.235857,7.9475 113.095143,8.6475 L112.217286,12.5925 L102.695857,12.5925 C100.298714,12.5703571 98.0401429,13.7175 96.643,15.6660714 C95.0315714,17.6539286 94.1715714,20.1467857 94.2151429,22.7053571 C94.2144286,23.3925 94.2944286,24.0775 94.453,24.7453571 C93.8322857,25.4732143 92.933,25.9046429 91.9772857,25.9360714 C91.4915714,25.9832143 91.013,25.7867857 90.6987143,25.4125 C90.4051429,24.8932143 90.273,24.2989286 90.318,23.7053571 C90.3815714,21.9896429 90.6094286,20.2832143 90.998,18.6110714 L93.4665714,7.10392857 C93.6544286,6.29035714 93.148,5.47892857 92.3344286,5.29107143 C91.5215714,5.10392857 90.7101429,5.61035714 90.5215714,6.42392857 L89.0937143,13.4489286 C88.0872857,12.8467857 86.9344286,12.5339286 85.7608571,12.5446429 C83.3737143,12.5096429 81.1001429,13.5603571 79.5794286,15.4010714 C77.9094286,17.4332143 77.0322857,20.0017857 77.1101429,22.6303571 C77.0937143,23.4653571 77.2065714,24.2982143 77.4437143,25.0989286 C76.8608571,25.6046429 76.1201429,25.8910714 75.3487143,25.9089286 C74.8387143,25.9546429 74.3365714,25.7610714 73.9887143,25.3853571 C73.6544286,24.8825 73.503,24.2796429 73.5601429,23.6782143 C73.6108571,22.5325 73.7701429,21.3932143 74.0358571,20.2775 C74.2037143,19.4296429 73.6515714,18.6067857 72.8037143,18.4403571 C72.7615714,18.4317857 72.7187143,18.4260714 72.6758571,18.4210714 C71.9122857,18.3232143 71.198,18.8146429 71.0165714,19.5632143 C70.6187143,21.1932143 69.9072857,22.7289286 68.9215714,24.0860714 C68.223,25.1625 67.0601429,25.8475 65.7801429,25.9360714 C65.113,25.9232143 64.5015714,25.5617857 64.168,24.9839286 C63.728,24.2203571 63.5115714,23.3482143 63.5422857,22.4675 C63.4544286,20.6853571 63.9715714,18.9260714 65.0108571,17.4753571 C65.8958571,16.1967857 67.3608571,15.4460714 68.9151429,15.4760714 C69.7008571,15.4817857 70.478,15.6439286 71.2001429,15.9525 C71.638,16.1660714 72.1565714,16.1303571 72.5608571,15.8567857 C73.2565714,15.4410714 73.4851429,14.5389286 73.0694286,13.8425 C72.9065714,13.5710714 72.6615714,13.3596429 72.3701429,13.2382143 C71.9887143,13.0732143 71.5922857,12.9453571 71.1865714,12.8575 C70.4572857,12.6532143 69.7058571,12.5417857 68.9487143,12.5239286 C66.5851429,12.5146429 64.3394286,13.5617857 62.828,15.3803571 C61.9265714,16.3946429 61.2594286,17.5946429 60.8758571,18.8967857 C59.4001429,23.5825 57.503,25.8675 55.2172857,25.8675 C54.5544286,25.9210714 53.9094286,25.6339286 53.5037143,25.1060714 C53.1265714,24.5660714 52.9415714,23.9139286 52.9801429,23.2560714 C52.9687143,23.0489286 52.9844286,22.8403571 53.028,22.6375 C54.4051429,22.1003571 55.6072857,21.1946429 56.503,20.0189286 C57.373,18.9046429 57.8508571,17.5346429 57.8637143,16.1217857 C57.8637143,13.7417857 56.5851429,12.5510714 53.9658571,12.5510714 C52.148,12.5425 50.4008571,13.2632143 49.1172857,14.5510714 L50.7358571,7.06964286 C50.9051429,6.25678571 50.383,5.46107143 49.5701429,5.2925 C49.4687143,5.27107143 49.3644286,5.26035714 49.2601429,5.26035714 C48.5458571,5.24964286 47.9251429,5.75035714 47.7844286,6.45107143 L43.3637143,27.0917857 C43.1908571,27.9003571 43.7058571,28.6953571 44.5137143,28.8682143 C44.6187143,28.8903571 44.7251429,28.9017857 44.8322857,28.9017857 C45.5365714,28.8789286 46.128,28.3646429 46.2472857,27.6703571 L47.6072857,21.3446429 C47.8415714,20.5060714 48.1608571,19.6917857 48.5594286,18.9175 C49.0601429,18.0267857 49.7408571,17.2510714 50.5587143,16.6389286 C51.388,15.9189286 52.453,15.5289286 53.5515714,15.5439286 C54.1015714,15.4632143 54.613,15.8425 54.6944286,16.3932143 C54.7087143,16.4903571 54.7087143,16.5889286 54.6944286,16.6867857 C54.6165714,17.6960714 54.093,18.6182143 53.2658571,19.2025 C52.4008571,19.9825 51.3287143,20.4953571 50.178,20.6789286 C50.083,21.5832143 50.0351429,22.2496429 50.0351429,22.6303571 C49.9622857,24.2667857 50.428,25.8825 51.3615714,27.2282143 C52.2772857,28.3789286 53.703,29.0025 55.1701429,28.8946429 C57.2001429,28.8753571 59.1094286,27.9282143 60.3522857,26.3232143 L60.9237143,25.6432143 C61.1387143,26.1975 61.4444286,26.7125 61.828,27.1667857 C62.7551429,28.3053571 64.1637143,28.9403571 65.6301429,28.8803571 C67.6701429,28.8803571 69.3908571,27.9282143 70.8194286,25.9289286 C71.4315714,27.9282143 72.8601429,28.8803571 75.2401429,28.8803571 C76.5772857,28.8639286 77.8665714,28.3860714 78.8922857,27.5275 C79.8108571,28.3889286 81.0337143,28.8510714 82.293,28.8132143 C84.333,28.8132143 86.0472857,27.8610714 87.4751429,25.8610714 C88.0944286,27.8610714 89.5151429,28.8132143 91.8958571,28.8132143 C93.4065714,28.8282143 94.8658571,28.2660714 95.9765714,27.2417857 C96.9772857,28.2896429 98.3772857,28.8610714 99.8258571,28.8132143 C102.098,28.8132143 104.241571,27.7575 105.627286,25.9567857 C107.339429,23.9017857 108.267286,21.3060714 108.245857,18.6317857 C108.266571,17.5432143 108.072286,16.4617857 107.674429,15.4489286 L111.625857,15.4489286 L111.245143,17.1625 C110.758714,19.1453571 110.440857,21.1653571 110.293,23.2017857 C110.293,26.9089286 111.816571,28.8132143 114.808714,28.8132143 C118.209429,28.8132143 120.752286,26.5275 122.562286,22.0117857 C122.871571,21.3275 122.568714,20.5210714 121.884429,20.2117857 C121.837286,20.1896429 121.788714,20.1710714 121.738714,20.1546429 Z M29.6801429,24.7182143 C28.9144286,25.5003571 27.8694286,25.9453571 26.7758571,25.9567857 C26.0394286,25.9967857 25.3294286,25.6775 24.8715714,25.0989286 C24.373,24.4125 24.1322857,23.5725 24.1908571,22.7260714 C24.1244286,20.9160714 24.6422857,19.1325 25.6672857,17.6389286 C26.4815714,16.3517857 27.9051429,15.5796429 29.428,15.5982143 C31.133,15.5982143 31.9872857,16.6432143 31.9922857,18.7332143 C32.0208571,20.9525 31.193,23.0960714 29.6801429,24.7182143 Z M29.5844286,12.6396429 C27.2001429,12.6103571 24.9487143,13.7389286 23.5451429,15.6660714 C21.933,17.6539286 21.0737143,20.1467857 21.1172857,22.7053571 C21.0358571,24.3510714 21.5801429,25.9667857 22.6408571,27.2282143 C23.6572857,28.3832143 25.1437143,29.0139286 26.6801429,28.9417857 C28.9522857,28.9396429 31.0951429,27.8853571 32.4815714,26.0853571 C34.2022857,24.0225 35.1301429,21.4132143 35.1001429,18.7267857 C35.1694286,17.1517857 34.7172857,15.5989286 33.8151429,14.3060714 C32.9101429,13.2110714 31.4815714,12.6396429 29.5844286,12.6396429 Z" id="Fill-1" fill="#1E1E1E" mask="url(#mask-2)"></path>
                </g>
                <g transform="translate(122.142857, 25.010214)">
                    <mask id="mask-4" fill="white">
                        <use xlink:href="#path-3"></use>
                    </mask>
                    <g id="Clip-4"></g>
                    <path d="M2.75178571,0.6705 C1.76892857,0.471928571 0.810357143,1.10621429 0.611071429,2.08907143 C0.610357143,2.09264286 0.610357143,2.0955 0.609642857,2.09907143 C0.401071429,3.06835714 1.01821429,4.02264286 1.98821429,4.23121429 C2.00464286,4.23478571 2.02107143,4.23835714 2.0375,4.24121429 C2.98964286,4.45835714 3.9375,3.86192857 4.15392857,2.90978571 C4.16178571,2.87764286 4.1675,2.8455 4.17321429,2.81335714 C4.33964286,1.8355 3.7175,0.896928571 2.75178571,0.6705" id="Fill-3" fill="#E6007A" mask="url(#mask-4)"></path>
                </g>
            </g>
        </g>
    </g>
</svg>