<?xml version="1.0" encoding="UTF-8"?>
<svg width="135px" height="30px" viewBox="0 0 135 30" version="1.1" xmlns="http://www.w3.org/2000/svg" xmlns:xlink="http://www.w3.org/1999/xlink">
    <!-- Generator: Sketch 52.2 (67145) - http://www.bohemiancoding.com/sketch -->
    <title>compound-logo</title>
    <desc>Created with Sketch.</desc>
    <g id="页面-1" stroke="none" stroke-width="1" fill="none" fill-rule="evenodd">
        <g id="桌面端-HD" transform="translate(-335.000000, -1184.000000)">
            <g id="compound-logo" transform="translate(335.000000, 1184.000000)">
                <path d="M131.978889,17.0626667 C131.978889,15.3083333 130.945556,13.9875556 129.314444,13.9875556 C127.683333,13.9875556 126.648889,15.3083333 126.648889,17.0626667 C126.648889,18.8168889 127.683333,20.1376667 129.314444,20.1376667 C130.948889,20.141 131.978889,18.8202222 131.978889,17.0626667 Z M131.898889,12.8103333 L131.898889,8.21447778 C131.898889,7.91097778 132.102222,7.6475 132.395556,7.57078889 L134.833333,6.92043333 L134.833333,22.4722222 L132.128889,22.4722222 L132.128889,21.1515556 C131.448889,22.142 130.227778,22.7223333 128.7,22.7223333 C125.562222,22.7223333 123.724444,20.2043333 123.724444,17.066 C123.724444,13.9275556 125.562222,11.4095556 128.7,11.4095556 C130.224444,11.4062222 131.342222,12.0665556 131.898889,12.8103333 Z M115.26,11.653 L115.26,12.9737778 C115.756667,12.0432222 116.871111,11.4028889 118.481111,11.4028889 C121.083333,11.4028889 122.466667,13.1371111 122.466667,15.7185556 L122.466667,22.4722222 L119.535556,22.4722222 L119.535556,16.0521111 C119.535556,14.7913333 118.998889,13.9242222 117.697778,13.9242222 C116.273333,13.9242222 115.49,14.8314444 115.49,16.2788889 L115.49,22.4722222 L112.558889,22.4722222 L112.558889,11.653 L115.26,11.653 Z M105.704667,22.7223333 C102.546333,22.7223333 100.788667,21.3583333 100.788667,17.8496667 L100.788667,11.653 L103.720222,11.653 L103.720222,17.8897778 C103.720222,19.3972222 104.400667,20.0975556 105.701333,20.0975556 C107.002,20.0975556 107.682444,19.3938889 107.682444,17.8897778 L107.682444,11.653 L110.614019,11.653 L110.614,17.8463333 C110.620667,21.3583333 108.863,22.7223333 105.704667,22.7223333 Z M91.1101111,17.0626667 C91.1101111,19.0036667 92.3074444,20.1376667 93.8548889,20.1376667 C95.4024444,20.1376667 96.5997778,19.0003333 96.5997778,17.0626667 C96.5997778,15.1248889 95.4024444,13.9875556 93.8548889,13.9875556 C92.3107778,13.9875556 91.1101111,15.1215556 91.1101111,17.0626667 Z M93.8582222,22.7223333 C90.3896667,22.7223333 88.1784444,20.141 88.1784444,17.066 C88.1784444,13.991 90.3863333,11.4095556 93.8582222,11.4095556 C97.3267778,11.4095556 99.538,13.991 99.538,17.066 C99.5346667,20.141 97.3267778,22.7223333 93.8582222,22.7223333 Z M79.2436667,17.0626667 C79.2436667,18.8168889 80.2775556,20.1376667 81.9084444,20.1376667 C83.5393333,20.1376667 84.5732222,18.8168889 84.5732222,17.0626667 C84.5732222,15.3083333 83.5393333,13.9875556 81.9084444,13.9875556 C80.2775556,13.9875556 79.2436667,15.3083333 79.2436667,17.0626667 Z M79.327,21.3182222 L79.327,25.8173333 C79.327,26.1208889 79.1235556,26.3843333 78.8301111,26.461 L76.3954444,27.1014444 L76.3954444,11.653 L79.1002222,11.653 L79.1002222,12.9737778 C79.7805556,11.9832222 81.0012222,11.4028889 82.5287778,11.4028889 C85.6671111,11.4028889 87.5047778,13.9208889 87.5047778,17.0593333 C87.5047778,20.1976667 85.6671111,22.7156667 82.5287778,22.7156667 C80.9978889,22.7223333 79.884,22.062 79.327,21.3182222 Z M67.6873333,16.3188889 L67.6873333,22.4722222 L64.7557778,22.4722222 L64.7557778,16.0521111 C64.7557778,14.8547778 64.3222222,13.9242222 63.0214444,13.9242222 C61.6574444,13.9242222 60.9136667,14.8114444 60.9136667,16.2588889 L60.9136667,22.4755556 L57.9821111,22.4755556 L57.9821111,11.653 L60.6868889,11.653 L60.6868889,12.9737778 C61.1837778,12.0432222 62.2577778,11.4028889 63.8052222,11.4028889 C65.2726667,11.4028889 66.3233333,11.9798889 66.9436667,12.9303333 C67.8941111,11.8764444 68.9881111,11.4028889 70.5355556,11.4028889 C73.137,11.4028889 74.4576667,13.2005556 74.4576667,15.7185556 L74.4576667,22.4722222 L71.5261111,22.4722222 L71.5261111,16.0521111 C71.5261111,14.8547778 71.0925556,13.9242222 69.7917778,13.9242222 C68.4077778,13.9242222 67.6873333,14.8114444 67.6873333,16.3188889 Z M48.2001111,17.0626667 C48.2001111,19.0036667 49.3974444,20.1376667 50.9448889,20.1376667 C52.4924444,20.1376667 53.6897778,19.0003333 53.6897778,17.0626667 C53.6897778,15.1248889 52.4924444,13.9875556 50.9448889,13.9875556 C49.3974444,13.9875556 48.2001111,15.1215556 48.2001111,17.0626667 Z M50.9448889,22.7223333 C47.4763333,22.7223333 45.2652222,20.141 45.2652222,17.066 C45.2652222,13.991 47.473,11.4095556 50.9448889,11.4095556 C54.4167778,11.4095556 56.6246667,13.991 56.6246667,17.066 C56.6246667,20.141 54.4134444,22.7223333 50.9448889,22.7223333 Z M30.0535556,15.1215556 C30.0535556,10.5390667 33.212,7.50075556 37.4242222,7.50075556 C41.0795556,7.50075556 43.9711111,9.6686 44.5281111,13.2405556 L41.3063333,13.2405556 C40.8727778,11.4028889 39.3853333,10.3689778 37.4242222,10.3689778 C34.7394444,10.3689778 33.232,12.2266667 33.232,15.1182222 C33.232,18.0097778 34.7394444,19.8674444 37.4242222,19.8674444 C39.3853333,19.8674444 40.8727778,18.8335556 41.3063333,16.9958889 L44.5281111,16.9958889 C43.9711111,20.5678889 41.0795556,22.7356667 37.4242222,22.7356667 C33.212,22.7423333 30.0535556,19.7073333 30.0535556,15.1215556 Z" id="形状" fill="#000000"></path>
                <path d="M1.20398889,23.3808889 C0.456914444,22.9238889 0,22.1102222 0,21.2363333 L0,16.357 C0,16.1702222 0.0500272222,15.9902222 0.143411111,15.8301111 C0.433568889,15.3297778 1.07725222,15.1597778 1.57752222,15.4532222 L12.5902222,21.8733333 C13.2338889,22.2502222 13.6307778,22.9373333 13.6307778,23.6843333 L13.6307778,28.7404444 C13.6307778,28.9705556 13.5673333,29.2006667 13.4473333,29.3974444 C13.0837778,29.9911111 12.31,30.1778889 11.7163333,29.8143333 L1.20398889,23.3808889 Z M17.6195556,14.1157778 C18.2632222,14.4926667 18.6601111,15.1797778 18.6601111,15.9267778 L18.6601111,26.1856667 C18.6601111,26.4892222 18.4966667,26.7693333 18.2332222,26.9161111 L15.8218889,28.2735556 C15.7918889,28.2902222 15.7585556,28.3035556 15.7252222,28.3135556 L15.7252222,22.6171111 C15.7252222,21.88 15.3383333,21.1963333 14.7046667,20.8161111 L5.03273333,15.0296667 L5.03273333,8.5995 C5.03273333,8.41272222 5.08276667,8.23263333 5.17614444,8.07254444 C5.4663,7.57226667 6.10998889,7.40217778 6.61025556,7.69566667 L17.6195556,14.1157778 Z M22.4388889,6.53837778 C23.0858889,6.91191111 23.4827778,7.60562222 23.4827778,8.3527 L23.4827778,23.3375556 C23.4827778,23.6443333 23.3126667,23.9277778 23.0425556,24.0745556 L20.7578889,25.3085556 L20.7578889,14.8762222 C20.7578889,14.1392222 20.3711111,13.4587778 19.7407778,13.0785556 L9.85535556,7.14871111 L9.85535556,1.04872667 C9.85535556,0.861958889 9.90537778,0.681861111 9.99543333,0.521773333 C10.2855889,0.0215021111 10.9292667,-0.14859 11.4295556,0.141567778 L22.4388889,6.53837778 Z" id="形状" fill="#00D395"></path>
            </g>
        </g>
    </g>
</svg>