<?xml version="1.0" encoding="UTF-8"?>
<svg width="126px" height="30px" viewBox="0 0 126 30" version="1.1" xmlns="http://www.w3.org/2000/svg" xmlns:xlink="http://www.w3.org/1999/xlink">
    <!-- Generator: Sketch 52.2 (67145) - http://www.bohemiancoding.com/sketch -->
    <title>DODO</title>
    <desc>Created with Sketch.</desc>
    <defs>
        <polygon id="path-1" points="0.461538462 0.923134615 18 0.923134615 18 20.3076923 0.461538462 20.3076923"></polygon>
        <polygon id="path-3" points="0.0298779231 0.0670448077 38.6951538 0.0670448077 38.6951538 29.5345385 0.0298779231 29.5345385"></polygon>
    </defs>
    <g id="页面-1" stroke="none" stroke-width="1" fill="none" fill-rule="evenodd">
        <g id="桌面端-HD" transform="translate(-559.000000, -1184.000000)">
            <g id="DODO" transform="translate(559.000000, 1184.000000)">
                <path d="M78.7073077,22.1276538 C78.4579615,22.8148846 78.1146923,23.4038077 77.6780769,23.8945385 C77.2416923,24.3856154 76.7203846,24.774 76.1145,25.0594615 C75.5085,25.3449231 74.8580769,25.488 74.1628846,25.488 C73.4680385,25.488 72.8176154,25.3449231 72.2116154,25.0594615 C71.6056154,24.774 71.0846538,24.3856154 70.6480385,23.8945385 C70.2113077,23.4038077 69.8681538,22.8148846 69.6188077,22.1276538 C69.3694615,21.4404231 69.2445,20.7041538 69.2445,19.9187308 C69.2445,19.1329615 69.3694615,18.3966923 69.6188077,17.7098077 C69.8681538,17.0222308 70.2113077,16.4333077 70.6480385,15.9425769 C71.0846538,15.4513846 71.6056154,15.0631154 72.2116154,14.7776538 C72.8176154,14.4921923 73.4680385,14.3491154 74.1628846,14.3491154 C74.8580769,14.3491154 75.5085,14.4921923 76.1145,14.7776538 C76.7203846,15.0631154 77.2416923,15.4513846 77.6780769,15.9425769 C78.1146923,16.4333077 78.4579615,17.0222308 78.7073077,17.7098077 C78.9566538,18.3966923 79.0815,19.1329615 79.0815,19.9187308 C79.0815,20.7041538 78.9566538,21.4404231 78.7073077,22.1276538 Z M83.2493077,16.047 C82.7486538,14.8570385 82.0647692,13.8274615 81.198,12.9594231 C80.3312308,12.0911538 79.3077692,11.4066462 78.1281923,10.9053346 C76.9483846,10.4043808 75.6792692,10.1539038 74.3207308,10.1539038 C72.9626538,10.1539038 71.6889231,10.4043808 70.5005769,10.9053346 C69.3115385,11.4066462 68.2838077,12.0911538 67.4170385,12.9594231 C66.5502692,13.8274615 65.8663846,14.8570385 65.3660769,16.047 C64.8655385,17.2374231 64.6153846,18.5036538 64.6153846,19.8463846 C64.6153846,21.1887692 64.8655385,22.455 65.3660769,23.6454231 C65.8663846,24.8357308 66.5502692,25.8649615 67.4170385,26.733 C68.2838077,27.6012692 69.3115385,28.2857308 70.5005769,28.7870769 C71.6889231,29.2880769 72.9626538,29.5384615 74.3207308,29.5384615 C75.6792692,29.5384615 76.9483846,29.2880769 78.1281923,28.7870769 C79.3077692,28.2857308 80.3312308,27.6012692 81.198,26.733 C82.0647692,25.8649615 82.7486538,24.8357308 83.2493077,23.6454231 C83.7495,22.455 84,21.1887692 84,19.8463846 C84,18.5036538 83.7495,17.2374231 83.2493077,16.047 Z" id="形状" fill="#000000"></path>
                <g id="Clipped" transform="translate(43.846154, 9.230769)">
                    <mask id="mask-2" fill="white">
                        <use xlink:href="#path-1"></use>
                    </mask>
                    <g id="路径"></g>
                    <path d="M12.7275,12.8585769 C12.4795385,13.5415385 12.1398462,14.1323077 11.7087692,14.6308846 C11.2773462,15.1293462 10.7680385,15.5215385 10.1806154,15.8078077 C9.59330769,16.0939615 8.96942308,16.2370385 8.30826923,16.2370385 L5.19692308,16.2370385 L5.19692308,4.99384615 L8.30826923,4.99384615 C8.96942308,4.99384615 9.59330769,5.14153846 10.1806154,5.43692308 C10.7680385,5.73265385 11.2773462,6.13396154 11.7087692,6.64176923 C12.1398462,7.14911538 12.4795385,7.74946154 12.7275,8.44153846 C12.9751154,9.13373077 13.0991538,9.87715385 13.0991538,10.6707692 C13.0991538,11.4462692 12.9751154,12.1756154 12.7275,12.8585769 Z M17.2429615,6.83538462 C16.7378077,5.64461538 16.0496538,4.61538462 15.1781538,3.74769231 C14.3058462,2.88023077 13.278,2.19264231 12.0941538,1.68455769 C10.9103077,1.17681923 9.64811538,0.923134615 8.30826923,0.923134615 L0.461538462,0.923134615 L0.461538462,20.3076923 L8.30826923,20.3076923 C9.64811538,20.3076923 10.9103077,20.0586923 12.0941538,19.5601154 C13.278,19.0615385 14.3058462,18.3785769 15.1781538,17.5107692 C16.0496538,16.6430769 16.7378077,15.6186923 17.2429615,14.4368077 C17.7474231,13.2557308 18,12 18,10.6707692 C18,9.30473077 17.7474231,8.02603846 17.2429615,6.83538462 Z" id="形状" fill="#000000" mask="url(#mask-2)"></path>
                </g>
                <path d="M120.245769,22.1276538 C119.996538,22.8148846 119.652692,23.4038077 119.216538,23.8945385 C118.780385,24.3856154 118.258846,24.774 117.653077,25.0594615 C117.047308,25.3449231 116.396538,25.488 115.700769,25.488 C115.006154,25.488 114.356077,25.3449231 113.750077,25.0594615 C113.144077,24.774 112.623115,24.3856154 112.186154,23.8945385 C111.749769,23.4038077 111.406615,22.8148846 111.156923,22.1276538 C110.907462,21.4404231 110.782962,20.7041538 110.782962,19.9187308 C110.782962,19.1329615 110.907462,18.3966923 111.156923,17.7098077 C111.406615,17.0222308 111.749769,16.4333077 112.186154,15.9425769 C112.623115,15.4513846 113.144077,15.0631154 113.750077,14.7776538 C114.356077,14.4921923 115.006154,14.3491154 115.700769,14.3491154 C116.396538,14.3491154 117.047308,14.4921923 117.653077,14.7776538 C118.258846,15.0631154 118.780385,15.4513846 119.216538,15.9425769 C119.652692,16.4333077 119.996538,17.0222308 120.245769,17.7098077 C120.495,18.3966923 120.619615,19.1329615 120.619615,19.9187308 C120.619615,20.7041538 120.495,21.4404231 120.245769,22.1276538 Z M124.787308,16.047 C124.287692,14.8570385 123.603462,13.8274615 122.736923,12.9594231 C121.870385,12.0911538 120.846923,11.4066462 119.666538,10.9053346 C118.487308,10.4043808 117.218077,10.1539038 115.858846,10.1539038 C114.501462,10.1539038 113.227385,10.4043808 112.039038,10.9053346 C110.850346,11.4066462 109.822615,12.0911538 108.955846,12.9594231 C108.088731,13.8274615 107.405192,14.8570385 106.904538,16.047 C106.404,17.2374231 106.153846,18.5036538 106.153846,19.8463846 C106.153846,21.1887692 106.404,22.455 106.904538,23.6454231 C107.405192,24.8357308 108.088731,25.8649615 108.955846,26.733 C109.822615,27.6012692 110.850346,28.2857308 112.039038,28.7870769 C113.227385,29.2880769 114.501462,29.5384615 115.858846,29.5384615 C117.218077,29.5384615 118.487308,29.2880769 119.666538,28.7870769 C120.846923,28.2857308 121.870385,27.6012692 122.736923,26.733 C123.603462,25.8649615 124.287692,24.8357308 124.787308,23.6454231 C125.288077,22.455 125.538462,21.1887692 125.538462,19.8463846 C125.538462,18.5036538 125.288077,17.2374231 124.787308,16.047 Z" id="形状" fill="#000000"></path>
                <path d="M98.9292692,22.242 C98.6845385,22.9275 98.3486538,23.5203462 97.9225385,24.0206538 C97.4958462,24.5209615 96.9923077,24.9146538 96.4116923,25.2018462 C95.8310769,25.4890385 95.2143462,25.6326923 94.5611538,25.6326923 L91.4854615,25.6326923 L91.4854615,14.3491154 L94.5611538,14.3491154 C95.2143462,14.3491154 95.8310769,14.4972692 96.4116923,14.7936923 C96.9923077,15.0905769 97.4958462,15.4933846 97.9225385,16.0029231 C98.3486538,16.5121154 98.6845385,17.1145385 98.9292692,17.8092692 C99.1741154,18.5038846 99.2966538,19.2499615 99.2966538,20.0463462 C99.2966538,20.8247308 99.1741154,21.5566154 98.9292692,22.242 Z M103.550654,16.0661538 C103.045846,14.8753846 102.357346,13.8461538 101.485731,12.9784615 C100.613423,12.111 99.5855769,11.4234115 98.4017308,10.9153269 C97.2178846,10.4075885 95.9559231,10.1539038 94.6160769,10.1539038 L86.7692308,10.1539038 L86.7692308,29.5384615 L94.6160769,29.5384615 C95.9559231,29.5384615 97.2178846,29.2894615 98.4017308,28.7908846 C99.5855769,28.2923077 100.613423,27.6093462 101.485731,26.7415385 C102.357346,25.8738462 103.045846,24.8494615 103.550654,23.6675769 C104.055115,22.4865 104.307692,21.2307692 104.307692,19.9015385 C104.307692,18.5355 104.055115,17.2568077 103.550654,16.0661538 Z" id="形状" fill="#000000"></path>
                <g id="Clipped">
                    <mask id="mask-4" fill="white">
                        <use xlink:href="#path-3"></use>
                    </mask>
                    <g id="路径"></g>
                    <path d="M23.9418462,7.83856154 C24.1092692,7.57550769 24.261,7.28359615 24.3887308,6.96789231 C24.6088846,6.42345 24.7305,5.87998846 24.7599231,5.38508077 C24.8798077,4.34066538 24.6276923,3.49241538 24.0349615,3.23968846 C23.4521538,2.99126538 22.6883077,3.38048077 22.0337308,4.16554615 C22.0348846,4.11348462 22.0359231,4.06142308 22.0359231,4.00877308 C22.0359231,1.83198462 21.0476538,0.0670448077 19.8285,0.0670448077 C18.6093462,0.0670448077 17.6210769,1.83198462 17.6210769,4.00877308 C17.6210769,4.16321538 17.6265,4.31531538 17.6361923,4.46507308 C16.8946154,3.44736923 15.9197308,2.92593462 15.2233846,3.26192308 C14.3524615,3.68233846 14.2471154,5.28328846 14.9882308,6.83802692 C15.1123846,7.09893462 15.3910385,7.54723846 15.5423077,7.76895 C6.08892692,9.27669231 0.707380385,16.9466538 0.0298779231,29.5346538 L5.31774231,29.5346538 C5.87532692,19.1717308 10.6915154,13.3182692 19.3923462,13.4978077 C27.3822692,13.6628077 33.4885385,18.9091154 33.4065,29.5346538 L38.694,29.5346538 C38.7905769,16.9989231 32.6295,9.78680769 23.9418462,7.83856154 Z" id="路径" fill="#000000" mask="url(#mask-4)"></path>
                </g>
                <path d="M15.0001154,19.6153846 C14.3627308,19.6153846 13.8461538,20.1951923 13.8461538,20.91 L13.8461538,24.09 C13.8461538,24.8050385 14.3627308,25.3846154 15.0001154,25.3846154 C15.6372692,25.3846154 16.1538462,24.8050385 16.1538462,24.09 L16.1538462,20.91 C16.1538462,20.1951923 15.6372692,19.6153846 15.0001154,19.6153846 Z" id="路径" fill="#000000"></path>
                <path d="M24.2306538,19.6153846 C23.5935,19.6153846 23.0769231,20.1951923 23.0769231,20.91 L23.0769231,24.09 C23.0769231,24.8050385 23.5935,25.3846154 24.2306538,25.3846154 C24.8680385,25.3846154 25.3846154,24.8050385 25.3846154,24.09 L25.3846154,20.91 C25.3846154,20.1951923 24.8680385,19.6153846 24.2306538,19.6153846 Z" id="路径" fill="#000000"></path>
            </g>
        </g>
    </g>
</svg>