<?xml version="1.0" encoding="UTF-8"?>
<svg width="122px" height="38px" viewBox="0 0 122 38" version="1.1" xmlns="http://www.w3.org/2000/svg" xmlns:xlink="http://www.w3.org/1999/xlink">
    <!-- Generator: Sketch 52.2 (67145) - http://www.bohemiancoding.com/sketch -->
    <title>5f760a499b56c47b8fa74fbb_chainlink-logo</title>
    <desc>Created with Sketch.</desc>
    <g id="页面-1" stroke="none" stroke-width="1" fill="none" fill-rule="evenodd">
        <g id="桌面端-HD" transform="translate(-774.000000, -1180.000000)" fill="#375BD2" fill-rule="nonzero">
            <g id="5f760a499b56c47b8fa74fbb_chainlink-logo" transform="translate(774.000000, 1180.000000)">
                <path d="M41.8838,18.3925 C41.8514,17.5044 41.9998,16.6189 42.3202,15.7892 C42.6406,14.9595 43.1264,14.2028 43.7483,13.5645 C44.3702,12.9262 45.1154,12.4194 45.9392,12.0747 C46.7631,11.7299 47.6485,11.5543 48.5423,11.5583 C51.9101,11.5583 53.9034,13.5231 54.5048,15.8297 L52.3913,16.5387 C52.2053,15.6788 51.7137,14.9143 51.0068,14.3855 C50.2998,13.8567 49.4248,13.5991 48.5423,13.6598 C46.36,13.6598 44.1778,15.2402 44.1778,18.4352 C44.1778,21.6302 46.3085,23.1508 48.568,23.1508 C49.4554,23.1764 50.3258,22.9049 51.0394,22.3797 C51.753,21.8545 52.2684,21.1062 52.503,20.2548 L54.5563,20.9212 C54.2048,22.221 53.4165,23.362 52.3224,24.1546 C51.2283,24.9472 49.8943,25.3436 48.5423,25.2779 C47.6404,25.2947 46.7448,25.1261 45.9116,24.7825 C45.0784,24.4389 44.3256,23.9279 43.7005,23.2814 C43.0753,22.6349 42.5912,21.8669 42.2786,21.0256 C41.966,20.1843 41.8316,19.2879 41.8838,18.3925 Z" id="路径"></path>
                <path d="M58.6287,24.9619 L56.4637,24.9619 L56.4637,11.5241 L58.6287,11.5241 L58.6287,16.795 C58.9441,16.4242 59.3398,16.1294 59.7862,15.9326 C60.2327,15.7358 60.7182,15.6422 61.2062,15.6588 C63.4486,15.6588 64.5311,17.2563 64.5311,19.2468 L64.5311,24.9619 L62.4262,24.9619 L62.4262,19.6141 C62.4657,19.354 62.4457,19.0883 62.3677,18.8369 C62.2897,18.5855 62.1558,18.3548 61.9759,18.1619 C61.7959,17.9691 61.5746,17.819 61.3283,17.7228 C61.082,17.6267 60.8171,17.5869 60.5532,17.6066 C60.2914,17.6068 60.0325,17.6611 59.7928,17.766 C59.5532,17.871 59.3381,18.0243 59.1612,18.2163 C58.9843,18.4082 58.8495,18.6346 58.7652,18.8812 C58.6809,19.1277 58.6491,19.3889 58.6717,19.6483 L58.6287,24.9619 Z" id="路径"></path>
                <path d="M69.3682,19.785 L71.6965,19.4262 C72.2206,19.3578 72.3666,19.093 72.3666,18.7769 C72.3666,18.0166 71.8511,17.4015 70.6483,17.4015 C70.4164,17.3817 70.1828,17.409 69.9618,17.4816 C69.7407,17.5543 69.5368,17.6708 69.3625,17.8242 C69.1881,17.9776 69.047,18.1646 68.9475,18.3739 C68.8481,18.5832 68.7924,18.8104 68.784,19.0417 L66.8079,18.5975 C66.9711,17.0342 68.3973,15.6417 70.6311,15.6417 C73.432,15.6417 74.4973,17.2221 74.4973,19.0588 L74.4973,23.5438 C74.4924,24.0302 74.5297,24.5161 74.609,24.996 L72.59,24.996 C72.5207,24.6157 72.4919,24.2291 72.5041,23.8428 C72.2025,24.3024 71.7855,24.6758 71.2943,24.926 C70.803,25.1762 70.2546,25.2946 69.7032,25.2694 C69.3189,25.3008 68.932,25.2544 68.5662,25.133 C68.2004,25.0116 67.8631,24.8176 67.5748,24.5629 C67.2865,24.3081 67.0531,23.9979 66.8888,23.651 C66.7245,23.304 66.6327,22.9275 66.6189,22.5443 C66.6189,20.8955 67.8131,20.0071 69.3682,19.785 Z M72.3666,21.2372 L72.3666,20.8272 L69.9954,21.1774 C69.6731,21.1884 69.3675,21.3223 69.142,21.5513 C68.9164,21.7804 68.7882,22.087 68.784,22.4076 C68.7867,22.5731 68.8239,22.7362 68.8933,22.8866 C68.9627,23.0371 69.0628,23.1715 69.1871,23.2815 C69.3115,23.3915 69.4575,23.4747 69.6158,23.5257 C69.7742,23.5767 69.9414,23.5945 70.1071,23.5779 C70.4199,23.6097 70.736,23.5701 71.0312,23.4622 C71.3264,23.3544 71.5931,23.181 71.8109,22.9554 C72.0287,22.7298 72.1919,22.4578 72.2882,22.1601 C72.3845,21.8624 72.4113,21.5468 72.3666,21.2372 Z" id="形状"></path>
                <path d="M78.1745,11.3362 C78.3621,11.3339 78.5483,11.3687 78.7223,11.4386 C78.8963,11.5084 79.0546,11.6118 79.188,11.743 C79.3215,11.8741 79.4275,12.0302 79.4998,12.2024 C79.5721,12.3745 79.6093,12.5592 79.6093,12.7458 C79.6093,13.1173 79.4609,13.4737 79.1966,13.7364 C78.9324,13.9992 78.574,14.1468 78.2003,14.1468 C77.8266,14.1468 77.4682,13.9992 77.204,13.7364 C76.9397,13.4737 76.7913,13.1173 76.7913,12.7458 C76.7912,12.3778 76.9358,12.0243 77.1943,11.7609 C77.4527,11.4976 77.8045,11.3451 78.1745,11.3362 Z M77.1178,25.0046 L77.1178,15.9237 L79.2571,15.9237 L79.2571,24.9619 L77.1178,25.0046 Z" id="形状"></path>
                <path d="M84.223,24.9619 L82.0579,24.9619 L82.0579,15.9237 L84.1714,15.9237 L84.1714,17.1282 C84.4457,16.6658 84.8402,16.2853 85.3133,16.0268 C85.7865,15.7682 86.321,15.6411 86.8606,15.6588 C89.0772,15.6588 90.1425,17.2563 90.1425,19.2468 L90.1425,24.9619 L87.9775,24.9619 L87.9775,19.6141 C87.9775,18.5036 87.4706,17.6066 86.1131,17.6066 C85.8429,17.6082 85.5761,17.6667 85.3302,17.7781 C85.0844,17.8895 84.865,18.0514 84.6865,18.253 C84.508,18.4547 84.3744,18.6917 84.2945,18.9484 C84.2146,19.205 84.1903,19.4756 84.223,19.7423 L84.223,24.9619 Z" id="路径"></path>
                <polygon id="路径" points="92.7802 24.9619 92.7802 11.5241 94.9452 11.5241 94.9452 24.9619"></polygon>
                <path d="M98.8114,11.3362 C99.1874,11.3362 99.548,11.4847 99.8138,11.7491 C100.08,12.0134 100.229,12.3719 100.229,12.7458 C100.227,13.0221 100.143,13.2918 99.988,13.5209 C99.8325,13.75 99.6124,13.9282 99.3553,14.0332 C99.0981,14.1382 98.8156,14.1652 98.543,14.1109 C98.2705,14.0565 98.0202,13.9233 97.8237,13.7278 C97.6272,13.5324 97.4932,13.2836 97.4385,13.0126 C97.3839,12.7416 97.4111,12.4607 97.5166,12.205 C97.6222,11.9494 97.8015,11.7305 98.0319,11.5759 C98.2623,11.4213 98.5335,11.3379 98.8114,11.3362 Z M97.7461,25.0046 L97.7461,15.9237 L99.8939,15.9237 L99.8939,24.9619 L97.7461,25.0046 Z" id="形状"></path>
                <path d="M104.86,24.9619 L102.695,24.9619 L102.695,15.9237 L104.8,15.9237 L104.8,17.1282 C105.075,16.667 105.47,16.2876 105.943,16.0292 C106.416,15.7708 106.95,15.643 107.489,15.6588 C109.714,15.6588 110.779,17.2563 110.779,19.2468 L110.779,24.9619 L108.614,24.9619 L108.614,19.6141 C108.654,19.354 108.634,19.0883 108.556,18.8369 C108.478,18.5855 108.344,18.3548 108.164,18.1619 C107.984,17.9691 107.763,17.819 107.516,17.7228 C107.27,17.6267 107.005,17.5869 106.741,17.6066 C106.472,17.6081 106.205,17.6665 105.96,17.778 C105.714,17.8895 105.495,18.0515 105.317,18.2534 C105.139,18.4552 105.007,18.6923 104.928,18.949 C104.849,19.2057 104.826,19.476 104.86,19.7423 L104.86,24.9619 Z" id="路径"></path>
                <polygon id="路径" points="118.185 19.7423 122 24.9619 119.345 24.9619 116.673 21.2372 115.556 22.4076 115.556 24.9704 113.408 24.9704 113.408 11.5241 115.556 11.5241 115.556 19.5799 119.045 15.9237 121.923 15.9237"></polygon>
                <path d="M16.2294,7.89348 L25.5942,13.2412 L25.5942,23.9794 L16.2552,29.3614 L6.89042,24.0222 L6.89042,13.2839 L16.2294,7.89348 Z M16.2294,0 L12.7928,1.98191 L3.43662,7.37238 L0,9.3543 L0,13.301 L0,24.0307 L0,27.9774 L3.43662,29.9423 L12.8014,35.29 L16.238,37.2548 L19.6747,35.2729 L29.0137,29.8825 L32.4503,27.9091 L32.4503,23.9624 L32.4503,13.2241 L32.4503,9.2774 L29.0137,7.31258 L19.6489,1.96483 L16.2123,0 L16.2294,0 Z" id="形状"></path>
            </g>
        </g>
    </g>
</svg>