<?xml version="1.0" encoding="UTF-8"?>
<svg width="105px" height="30px" viewBox="0 0 105 30" version="1.1" xmlns="http://www.w3.org/2000/svg" xmlns:xlink="http://www.w3.org/1999/xlink">
    <!-- Generator: Sketch 52.2 (67145) - http://www.bohemiancoding.com/sketch -->
    <title>aave</title>
    <desc>Created with Sketch.</desc>
    <defs>
        <linearGradient x1="0%" y1="100%" x2="100%" y2="0%" id="linearGradient-1">
            <stop stop-color="#2FB1C2" offset="0%"></stop>
            <stop stop-color="#B14E9D" offset="100%"></stop>
        </linearGradient>
    </defs>
    <g id="页面-1" stroke="none" stroke-width="1" fill="none" fill-rule="evenodd">
        <g id="桌面端-HD" transform="translate(-982.000000, -1184.000000)" fill="url(#linearGradient-1)" fill-rule="nonzero">
            <g id="aave" transform="translate(982.000000, 1184.000000)">
                <path d="M64.4516129,27.1451613 L54.3290323,2.58387097 C54.2490221,2.36012309 54.2065146,2.12469712 54.2032258,1.88709677 C54.1835425,1.3853055 54.3606435,0.895673248 54.6967742,0.522580645 C55.0485278,0.162111625 55.5390853,-0.0284646821 56.0419355,-1.32968983e-12 C56.4179555,0.00532160024 56.7830878,0.127032345 57.0870968,0.348387097 C57.4035488,0.585464203 57.6508076,0.902891083 57.8032258,1.26774194 L67.4322581,25.2967742 L77.0612903,1.26774194 C77.2163946,0.901742205 77.4670871,0.584198395 77.7870968,0.348387097 C78.0911058,0.127032345 78.456238,0.00532160024 78.8322581,-1.32809042e-12 C79.3318021,-0.025629625 79.8182582,0.164722748 80.1677419,0.522580645 C80.5073829,0.894163312 80.6880199,1.38396771 80.6709677,1.88709677 C80.6676789,2.12469712 80.6251715,2.36012309 80.5451613,2.58387097 L70.4225806,27.1451613 C70.0672649,28.2511993 69.0485812,29.00938 67.8870968,29.0322581 L66.9870968,29.0322581 C65.8256124,29.00938 64.8069287,28.2511993 64.4516129,27.1451613 Z M84.9774194,28.2774194 C84.630725,27.9285333 84.4418993,27.4529722 84.4548387,26.9612903 L84.4548387,2.09032258 C84.4424195,1.58726972 84.6304056,1.0998983 84.9774194,0.735483871 C85.3182254,0.374621179 85.7974573,0.177290386 86.2935484,0.193548387 L102.745161,0.193548387 C103.213883,0.182132358 103.664963,0.372431612 103.983871,0.716129032 C104.323482,1.03788335 104.512978,1.48705757 104.506452,1.95483871 C104.519947,2.41834303 104.328819,2.86430788 103.983871,3.17419355 C103.651975,3.50242575 103.202229,3.68371863 102.735484,3.67741935 L88.1903226,3.67741935 L88.1903226,12.7354839 L101.274194,12.7354839 C101.742915,12.7240678 102.193995,12.9143671 102.512903,13.2580645 C102.848629,13.5824959 103.037381,14.0299078 103.035484,14.4967742 C103.048979,14.9602785 102.857851,15.4062434 102.512903,15.716129 C102.183376,16.0419638 101.737597,16.2230618 101.274194,16.2193548 L88.1903226,16.2193548 L88.1903226,25.316129 L102.735484,25.316129 C103.207547,25.3019042 103.662713,25.492439 103.983871,25.8387097 C104.325988,26.1627525 104.515706,26.615968 104.506452,27.0870968 C104.519947,27.5506011 104.328819,27.9965659 103.983871,28.3064516 C103.650391,28.6311434 103.200839,28.8088732 102.735484,28.8 L86.2935484,28.8 C85.7980367,28.8360508 85.3132385,28.6435574 84.9774194,28.2774194 Z M56.6225806,26.4483871 L56.6322581,26.4483871 C56.7209618,26.669497 56.7605847,26.9072345 56.7483871,27.1451613 C56.7707111,27.645622 56.5971425,28.1350856 56.2645161,28.5096774 C55.9105011,28.8727795 55.4158282,29.0635819 54.9096774,29.0322581 C54.5336574,29.0269365 54.1685251,28.9052257 53.8645161,28.683871 C53.5480641,28.4467939 53.3008053,28.129367 53.1483871,27.7645161 L43.5193548,3.73548387 L39.9580645,12.5612903 L41.6806452,12.5612903 C42.6794661,12.5718468 43.4850933,13.3817821 43.4903226,14.3806452 L43.4903226,14.4290323 C43.4850933,15.4278953 42.6794661,16.2378307 41.6806452,16.2483871 L38.4967742,16.2483871 L33.8612903,27.7645161 C33.7088722,28.129367 33.4616133,28.4467939 33.1451613,28.683871 C32.8411523,28.9052257 32.4760201,29.0269365 32.1,29.0322581 C31.5971498,29.0607227 31.1065923,28.8701464 30.7548387,28.5096774 C30.418708,28.1365848 30.241607,27.6469526 30.2612903,27.1451613 C30.2645791,26.9075609 30.3070866,26.672135 30.3870968,26.4483871 L34.5870968,16.2483871 L32.7967742,16.2483871 C31.7979533,16.2378307 30.9923261,15.4278953 30.9870968,14.4290323 L30.9870968,14.4096774 C30.9923261,13.4108144 31.7979533,12.600879 32.7967742,12.5903226 L36.1354839,12.5903226 L40.5387097,1.88709677 C40.8940254,0.781058729 41.9127091,0.0228781057 43.0741935,-1.23531307e-12 L43.9645161,-1.23531307e-12 C45.1224113,0.0269595546 46.1361667,0.784363002 46.4903226,1.88709677 L56.6225806,26.4483871 Z M26.3709677,26.4483871 C26.4596715,26.669497 26.4992944,26.9072345 26.4870968,27.1451613 C26.5094208,27.645622 26.3358522,28.1350856 26.0032258,28.5096774 C25.6492108,28.8727795 25.1545378,29.0635819 24.6483871,29.0322581 C24.272367,29.0269365 23.9072348,28.9052257 23.6032258,28.683871 C23.2867738,28.4467939 23.0395149,28.129367 22.8870968,27.7645161 L13.2580645,3.73548387 L9.72580645,12.5612903 L11.4387097,12.5612903 C12.4413119,12.5665812 13.2527736,13.378043 13.2580645,14.3806452 L13.2580645,14.4290323 C13.2527736,15.4316345 12.4413119,16.2430962 11.4387097,16.2483871 L8.23548387,16.2483871 L3.6,27.7645161 C3.44758183,28.129367 3.200323,28.4467939 2.88387097,28.683871 C2.57986197,28.9052257 2.21472973,29.0269365 1.83870968,29.0322581 C1.33585952,29.0607227 0.845301994,28.8701464 0.493548387,28.5096774 C0.157417716,28.1365848 -0.0196833098,27.6469526 6.58112453e-13,27.1451613 C0.0032888116,26.9075609 0.0457962779,26.672135 0.125806452,26.4483871 L4.32580645,16.2483871 L2.53548387,16.2483871 C1.53666293,16.2378307 0.73103573,15.4278953 0.725806452,14.4290323 L0.725806452,14.4096774 C0.73103573,13.4108144 1.53666293,12.600879 2.53548387,12.5903226 L5.87419355,12.5903226 L10.2774194,1.88709677 C10.6327351,0.781058729 11.6514188,0.0228781057 12.8129032,-1.23176035e-12 L13.7032258,-1.23176035e-12 C14.868296,0.0187765749 15.8919226,0.777739202 16.2483871,1.88709677 L26.3709677,26.4483871 Z" id="形状结合"></path>
            </g>
        </g>
    </g>
</svg>