<?xml version="1.0" encoding="utf-8"?>
<!-- Generator: Adobe Illustrator 24.2.0, SVG Export Plug-In . SVG Version: 6.00 Build 0)  -->
<svg version="1.1" id="图层_1" xmlns="http://www.w3.org/2000/svg" xmlns:xlink="http://www.w3.org/1999/xlink" x="0px" y="0px"
	 viewBox="0 0 493.87 156.39" style="enable-background:new 0 0 493.87 156.39;" xml:space="preserve">
<style type="text/css">
	.st0{fill:#191B2E;}
	.st1{fill:#FFFFFF;}
	.st2{fill:#50EE82;}
</style>
<g>
	<path class="st0" d="M78.19,0L78.19,0L78.19,0H59.72v47.81h22.99c14.32,0,25.96,11.65,25.96,25.96V96.8h47.72V79.64h-0.02
		c0.01-0.48,0.02-0.96,0.02-1.45v0C156.39,35.01,121.38,0,78.19,0z"/>
	<path class="st0" d="M82.71,59.55H59.72v23.02c0,7.84,6.38,14.22,14.22,14.22h22.99V73.78C96.93,65.93,90.55,59.55,82.71,59.55z"/>
	<path class="st0" d="M47.98,82.57V0H0v76.75h0.02C0.01,77.23,0,77.71,0,78.19v0c0,43.19,35.01,78.19,78.19,78.19h0h0h18.74v-47.85
		H73.94C59.62,108.54,47.98,96.89,47.98,82.57z"/>
	<rect x="108.67" y="108.54" class="st0" width="47.72" height="47.85"/>
	<path class="st0" d="M283.17,70.37c7.26-5.81,11.4-14.39,11.4-23.64c0-16.72-13.6-30.32-30.32-30.32H211.1v107.92h53.16
		c16.72,0,30.32-13.6,30.32-30.32C294.58,84.76,290.43,76.18,283.17,70.37z M264.26,110.97h-39.81V77.05h39.81
		c9.36,0,16.97,7.61,16.97,16.96C281.23,103.36,273.62,110.97,264.26,110.97z M264.26,63.69h-39.81V29.77h39.8
		c9.36,0,16.97,7.61,16.97,16.96C281.23,56.08,273.62,63.69,264.26,63.69z"/>
	<polygon class="st0" points="350.94,85.93 350.78,86.18 375.31,124.71 375.44,124.92 390.61,124.92 358.37,74.25 	"/>
	<rect x="480.52" y="16.41" class="st0" width="13.35" height="13.38"/>
	<polygon class="st0" points="480.52,63.85 423.75,63.85 423.75,16.41 410.39,16.41 410.39,124.92 423.75,124.92 423.75,77.48 
		480.52,77.48 480.52,124.92 493.87,124.92 493.87,33.57 480.52,33.57 	"/>
	<polygon class="st0" points="356.08,70.66 356.1,70.64 321.69,16.62 321.56,16.41 306.39,16.41 340.91,70.67 306.39,124.92 
		321.56,124.92 348.5,82.58 348.55,82.65 356.12,70.73 	"/>
	<polygon class="st0" points="350.92,54.95 350.76,55.19 358.34,67.12 390.61,16.41 375.44,16.41 	"/>
</g>
<g>
	<path class="st0" d="M212.71,141.89h5.54c2.43,0,3.99,1.45,3.99,3.42c0,1.44-0.83,2.65-2.5,3.2v-0.32
		c1.97,0.48,3.15,1.79,3.15,3.66c0,2.25-1.69,3.99-4.34,3.99h-5.84V141.89z M218.22,147.77c1.39,0,2.52-1,2.52-2.38
		c0-1.25-0.93-2.19-2.59-2.19h-3.94v4.57H218.22z M218.25,154.52c1.88,0,3.14-1.13,3.14-2.74c0-1.68-1.36-2.72-3.17-2.72h-4.01v5.46
		H218.25z"/>
	<path class="st0" d="M233.59,141.89h9.29v1.31h-7.8v4.78h7.34v1.31h-7.34v5.24h8.15v1.31h-9.64V141.89z"/>
	<path class="st0" d="M257.72,143.2h-4.6v-1.31h10.7v1.31h-4.61v12.63h-1.5V143.2z"/>
	<path class="st0" d="M278.44,143.2h-4.6v-1.31h10.7v1.31h-4.61v12.63h-1.5V143.2z"/>
	<path class="st0" d="M295.02,141.89h9.29v1.31h-7.8v4.78h7.34v1.31h-7.34v5.24h8.15v1.31h-9.64V141.89z"/>
	<path class="st0" d="M315.5,141.89h5.73c2.43,0,4.19,1.69,4.19,3.92c0,1.59-0.87,2.92-2.32,3.48v-0.2
		c1.54,0.45,2.14,1.56,2.14,2.97v2.24c0,0.59,0.14,1.08,0.42,1.54h-1.6c-0.22-0.35-0.32-0.86-0.32-1.52v-2.27
		c0-1.28-0.82-2.21-2.55-2.21H317v6h-1.5V141.89z M321.19,148.53c1.64,0,2.73-1.19,2.73-2.68c0-1.52-1.13-2.65-2.73-2.65H317v5.33
		H321.19z"/>
	<path class="st0" d="M353.45,148.77l-4.55-6.88h1.79l3.89,5.9h-0.43l3.88-5.9h1.8l-4.56,6.88l4.7,7.07h-1.82l-4-6.09h0.43l-4,6.09
		h-1.82L353.45,148.77z"/>
	<path class="st0" d="M383.45,141.89h1.5v6.08h7.59v-6.08h1.5v13.94h-1.5v-6.56h-7.59v6.56h-1.5V141.89z"/>
	<path class="st0" d="M405.45,141.89h1.5v13.94h-1.5V141.89z"/>
	<path class="st0" d="M417.82,148.83c0-3.9,2.22-7.2,6.39-7.2c2.84,0,5.06,1.54,5.71,4.21h-1.56c-0.65-1.99-2.3-2.88-4.14-2.88
		c-3.24,0-4.88,2.71-4.88,5.85c0,3.45,1.93,5.96,4.66,5.96c2.64,0,4.63-2.28,4.65-4.92h-4.37v-1.29h5.77v7.28h-1.02l-0.27-3.08h0.12
		c-0.84,2.08-2.73,3.34-4.99,3.34C420.47,156.1,417.82,153.15,417.82,148.83z"/>
	<path class="st0" d="M441.32,141.89h1.5v6.08h7.59v-6.08h1.5v13.94h-1.5v-6.56h-7.59v6.56h-1.5V141.89z"/>
	<path class="st0" d="M463.32,141.89h9.29v1.31h-7.8v4.78h7.34v1.31h-7.34v5.24h8.15v1.31h-9.64V141.89z"/>
	<path class="st0" d="M483.81,141.89h5.73c2.43,0,4.19,1.69,4.19,3.92c0,1.59-0.87,2.92-2.32,3.48v-0.2
		c1.54,0.45,2.14,1.56,2.14,2.97v2.24c0,0.59,0.14,1.08,0.42,1.54h-1.6c-0.22-0.35-0.32-0.86-0.32-1.52v-2.27
		c0-1.28-0.82-2.21-2.55-2.21h-4.19v6h-1.5V141.89z M489.49,148.53c1.64,0,2.73-1.19,2.73-2.68c0-1.52-1.13-2.65-2.73-2.65h-4.19
		v5.33H489.49z"/>
</g>
</svg>
