<?xml version="1.0" encoding="UTF-8"?>
<svg width="77px" height="77px" viewBox="0 0 77 77" version="1.1" xmlns="http://www.w3.org/2000/svg" xmlns:xlink="http://www.w3.org/1999/xlink">
    <!-- Generator: Sketch 52.2 (67145) - http://www.bohemiancoding.com/sketch -->
    <title>network备份</title>
    <desc>Created with Sketch.</desc>
    <g id="页面-1" stroke="none" stroke-width="1" fill="none" fill-rule="evenodd">
        <g id="Rampdefi备份" transform="translate(-272.000000, -2314.000000)" fill="currentColor" fill-rule="nonzero">
            <g id="编组-54" transform="translate(119.000000, 2144.000000)">
                <g id="network备份" transform="translate(153.000000, 170.000000)">
                    <path d="M15.4869,58.17645 C15.4869,57.55515 14.9832,57.05145 14.3619,57.05145 C7.6833,57.05145 2.25,51.62205 2.25,44.94855 C2.25,40.2144 5.03745,35.88795 9.35115,33.9264 C9.9168,33.6693 10.16685,33.00225 9.9096,32.4366 C9.6525,31.87095 8.9853,31.6209 8.4198,31.87815 C3.30495,34.20405 1.0658141e-15,39.33435 1.0658141e-15,44.94855 C1.0658141e-15,52.8627 6.44265,59.30145 14.3619,59.30145 C14.9832,59.30145 15.4869,58.79775 15.4869,58.17645 Z" id="路径"></path>
                    <path d="M23.55765,34.6752 C25.17975,25.61625 33.05295,19.0413 42.27825,19.0413 C49.3329,19.0413 55.7733,22.91235 59.0859,29.14395 C59.37765,29.6925 60.05865,29.90085 60.60735,29.60925 C61.1559,29.31765 61.36425,28.6365 61.07265,28.0878 C60.44265,26.90265 59.7114,25.79385 58.89285,24.7698 L58.89285,9.77355 L61.61445,6.53055 C61.98255,6.66855 62.3808,6.744 62.7966,6.744 C64.65765,6.744 66.1716,5.2314 66.1716,3.372 C66.1716,1.5126 64.6575,2.13162821e-15 62.7966,2.13162821e-15 C60.9357,2.13162821e-15 59.4216,1.5126 59.4216,3.372 C59.4216,3.9969 59.5926,4.58265 59.89035,5.08485 L56.9061,8.64075 C56.73615,8.8434 56.64285,9.09945 56.64285,9.3639 L56.64285,22.3632 C54.66765,20.5548 52.3695,19.13775 49.8702,18.18525 L49.8702,10.33305 C51.1797,9.8691 52.1202,8.619 52.1202,7.15365 C52.1202,5.29425 50.60625,3.78165 48.7452,3.78165 C46.88415,3.78165 45.3702,5.29425 45.3702,7.15365 C45.3702,8.619 46.3107,9.8691 47.6202,10.33305 L47.6202,17.46855 C45.89985,17.0241 44.1075,16.7913 42.27825,16.7913 C41.3469,16.7913 40.4277,16.8513 39.525,16.96785 L39.525,6.5514 C40.8345,6.08745 41.775,4.83735 41.775,3.372 C41.775,1.5126 40.26105,5.32907052e-15 38.4,5.32907052e-15 C36.53895,5.32907052e-15 35.025,1.5126 35.025,3.372 C35.025,4.83735 35.9655,6.08745 37.275,6.5514 L37.275,17.38215 C34.29165,18.0993 31.53945,19.44525 29.1798,21.285 L29.1798,10.33305 C30.4893,9.8691 31.4298,8.619 31.4298,7.15365 C31.4298,5.29425 29.91585,3.78165 28.0548,3.78165 C26.19375,3.78165 24.6798,5.29425 24.6798,7.15365 C24.6798,8.619 25.6203,9.8691 26.9298,10.33305 L26.9298,23.31255 C24.4779,25.86105 22.6494,29.03505 21.70995,32.61255 C21.1845,32.29815 20.64225,32.01945 20.08575,31.77705 L20.08575,9.36405 C20.08575,9.09945 19.99245,8.8434 19.8225,8.6409 L16.8384,5.085 C17.13615,4.58265 17.30715,3.9969 17.30715,3.372 C17.30715,1.5126 15.7932,7.99360578e-15 13.93215,7.99360578e-15 C12.0711,7.99360578e-15 10.55715,1.5126 10.55715,3.372 C10.55715,5.2314 12.0711,6.744 13.93215,6.744 C14.3478,6.744 14.7462,6.66855 15.11415,6.53055 L17.83575,9.77355 L17.83575,31.01505 C16.71255,30.7374 15.549,30.5958 14.36175,30.5958 C13.74045,30.5958 13.23675,31.0995 13.23675,31.7208 C13.23675,32.3421 13.74045,32.8458 14.36175,32.8458 C17.0679,32.8458 19.6269,33.71775 21.7623,35.3673 C21.96225,35.5218 22.20495,35.60205 22.4502,35.60205 C22.58655,35.60205 22.72365,35.5773 22.85475,35.52675 C23.2218,35.38515 23.4882,35.06235 23.55765,34.6752 Z M62.7966,2.25 C63.417,2.25 63.9216,2.75325 63.9216,3.372 C63.9216,3.99075 63.417,4.494 62.7966,4.494 C62.1762,4.494 61.6716,3.99075 61.6716,3.372 C61.6716,2.75325 62.1762,2.25 62.7966,2.25 Z M48.7452,6.0315 C49.3656,6.0315 49.8702,6.5349 49.8702,7.1535 C49.8702,7.7721 49.3656,8.2755 48.7452,8.2755 C48.1248,8.2755 47.6202,7.77225 47.6202,7.1535 C47.6202,6.53475 48.1248,6.0315 48.7452,6.0315 Z M38.4,2.25 C39.0204,2.25 39.525,2.75325 39.525,3.372 C39.525,3.99075 39.0204,4.494 38.4,4.494 C37.7796,4.494 37.275,3.99075 37.275,3.372 C37.275,2.75325 37.7796,2.25 38.4,2.25 Z M28.0548,6.0315 C28.6752,6.0315 29.1798,6.5349 29.1798,7.1535 C29.1798,7.7721 28.6752,8.2755 28.0548,8.2755 C27.4344,8.2755 26.9298,7.77225 26.9298,7.1535 C26.9298,6.53475 27.4344,6.0315 28.0548,6.0315 Z M12.80715,3.372 C12.80715,2.75325 13.31175,2.25 13.93215,2.25 C14.55255,2.25 15.05715,2.75325 15.05715,3.372 C15.05715,3.99075 14.55255,4.494 13.93215,4.494 C13.31175,4.494 12.80715,3.9906 12.80715,3.372 Z" id="形状"></path>
                    <path d="M65.96535,37.64505 C65.1441,37.64505 64.3353,37.7358 63.5466,37.9158 C63.53715,36.3492 63.3561,34.78845 63.0087,33.27465 C62.86965,32.66895 62.2659,32.2908 61.6605,32.42985 C61.05495,32.5689 60.67665,33.1725 60.8157,33.77805 C61.13505,35.169 61.2969,36.60525 61.2969,38.04645 C61.2969,38.4861 61.2813,38.9343 61.25055,39.37845 C61.22385,39.76425 61.39725,40.13685 61.7097,40.36485 C62.02215,40.593 62.42985,40.6443 62.7891,40.50135 C63.79905,40.0992 64.86765,39.8952 65.9652,39.8952 C70.6989,39.8952 74.54985,43.7433 74.54985,48.4734 C74.54985,53.2035 70.69875,57.0516 65.9652,57.0516 L62.2758,57.0516 C61.6545,57.0516 61.1508,57.5553 61.1508,58.1766 C61.1508,58.7979 61.6545,59.3016 62.2758,59.3016 L65.9652,59.3016 C71.93955,59.3016 76.79985,54.44415 76.79985,48.4734 C76.8,42.50265 71.93955,37.64505 65.96535,37.64505 Z" id="路径"></path>
                    <path d="M53.3283,57.05145 L42.90225,57.05145 C42.28095,57.05145 41.77725,57.55515 41.77725,58.17645 C41.77725,58.79775 42.28095,59.30145 42.90225,59.30145 L47.6202,59.30145 L47.6202,70.2486 C46.3107,70.71255 45.3702,71.96265 45.3702,73.428 C45.3702,75.2874 46.88415,76.8 48.7452,76.8 C50.60625,76.8 52.1202,75.2874 52.1202,73.428 C52.1202,71.9625 51.1797,70.7124 49.8702,70.2486 L49.8702,59.30145 L53.3283,59.30145 C53.9496,59.30145 54.4533,58.79775 54.4533,58.17645 C54.4533,57.55515 53.9496,57.05145 53.3283,57.05145 Z M48.7452,74.55 C48.1248,74.55 47.6202,74.04675 47.6202,73.428 C47.6202,72.80925 48.1248,72.306 48.7452,72.306 C49.3656,72.306 49.8702,72.8094 49.8702,73.428 C49.8702,74.0466 49.3656,74.55 48.7452,74.55 Z" id="形状"></path>
                    <path d="M33.8943,57.05145 L23.6502,57.05145 C23.0289,57.05145 22.5252,57.55515 22.5252,58.17645 C22.5252,58.79775 23.0289,59.30145 23.6502,59.30145 L26.9298,59.30145 L26.9298,70.2486 C25.6203,70.71255 24.6798,71.96265 24.6798,73.428 C24.6798,75.2874 26.19375,76.8 28.0548,76.8 C29.91585,76.8 31.4298,75.2874 31.4298,73.428 C31.4298,71.9625 30.4893,70.7124 29.1798,70.2486 L29.1798,59.30145 L33.8943,59.30145 C34.5156,59.30145 35.0193,58.79775 35.0193,58.17645 C35.0193,57.55515 34.5156,57.05145 33.8943,57.05145 Z M28.0548,74.55 C27.4344,74.55 26.9298,74.04675 26.9298,73.428 C26.9298,72.80925 27.4344,72.306 28.0548,72.306 C28.6752,72.306 29.1798,72.8094 29.1798,73.428 C29.1798,74.0466 28.6752,74.55 28.0548,74.55 Z" id="形状"></path>
                    <path d="M19.03215,47.34555 C17.1711,47.34555 15.65715,48.85815 15.65715,50.71755 C15.65715,52.1829 16.59765,53.433 17.90715,53.89695 L17.90715,69.27345 L13.14165,74.9517 C12.7422,75.42765 12.8043,76.13715 13.28025,76.5366 C13.491,76.71345 13.74765,76.79985 14.0028,76.79985 C14.3238,76.79985 14.6427,76.6632 14.86515,76.398 L19.8939,70.40595 C20.06385,70.2033 20.15715,69.94725 20.15715,69.6828 L20.15715,53.8968 C21.46665,53.43285 22.40715,52.18275 22.40715,50.7174 C22.40715,48.85815 20.8932,47.34555 19.03215,47.34555 Z M19.03215,51.83955 C18.41175,51.83955 17.90715,51.3363 17.90715,50.71755 C17.90715,50.0988 18.41175,49.59555 19.03215,49.59555 C19.65255,49.59555 20.15715,50.09895 20.15715,50.71755 C20.15715,51.33615 19.65255,51.83955 19.03215,51.83955 Z" id="形状"></path>
                    <path d="M38.4,47.34555 C36.53895,47.34555 35.025,48.85815 35.025,50.71755 C35.025,52.1829 35.9655,53.433 37.275,53.89695 L37.275,75.675 C37.275,76.2963 37.7787,76.8 38.4,76.8 C39.0213,76.8 39.525,76.2963 39.525,75.675 L39.525,53.89695 C40.8345,53.433 41.775,52.1829 41.775,50.71755 C41.775,48.85815 40.26105,47.34555 38.4,47.34555 Z M38.4,51.83955 C37.7796,51.83955 37.275,51.3363 37.275,50.71755 C37.275,50.0988 37.7796,49.59555 38.4,49.59555 C39.0204,49.59555 39.525,50.09895 39.525,50.71755 C39.525,51.33615 39.0204,51.83955 38.4,51.83955 Z" id="形状"></path>
                    <path d="M58.89285,69.27345 L58.89285,53.89695 C60.20235,53.433 61.14285,52.1829 61.14285,50.71755 C61.14285,48.85815 59.6289,47.34555 57.76785,47.34555 C55.9068,47.34555 54.39285,48.85815 54.39285,50.71755 C54.39285,52.1829 55.33335,53.433 56.64285,53.89695 L56.64285,69.68295 C56.64285,69.94755 56.73615,70.2036 56.9061,70.4061 L61.93485,76.39815 C62.15745,76.66335 62.4762,76.8 62.7972,76.8 C63.05235,76.8 63.309,76.7136 63.51975,76.53675 C63.9957,76.1373 64.05765,75.42765 63.65835,74.95185 L58.89285,69.27345 Z M57.76785,49.59555 C58.38825,49.59555 58.89285,50.09895 58.89285,50.71755 C58.89285,51.33615 58.38825,51.83955 57.76785,51.83955 C57.14745,51.83955 56.64285,51.3363 56.64285,50.71755 C56.64285,50.0988 57.14745,49.59555 57.76785,49.59555 Z" id="形状"></path>
                </g>
            </g>
        </g>
    </g>
</svg>