<?xml version="1.0" encoding="UTF-8"?>
<svg width="75px" height="75px" viewBox="0 0 75 75" version="1.1" xmlns="http://www.w3.org/2000/svg" xmlns:xlink="http://www.w3.org/1999/xlink">
    <!-- Generator: Sketch 52.2 (67145) - http://www.bohemiancoding.com/sketch -->
    <title>dividend备份</title>
    <desc>Created with Sketch.</desc>
    <g id="页面-1" stroke="none" stroke-width="1" fill="none" fill-rule="evenodd">
        <g id="Rampdefi备份" transform="translate(-682.000000, -2528.000000)" fill="currentColor" fill-rule="nonzero">
            <g id="编组-54" transform="translate(119.000000, 2144.000000)">
                <g id="编组-40" transform="translate(0.000000, 345.000000)">
                    <g id="编组-28" transform="translate(410.000000, 0.000000)">
                        <g id="dividend备份" transform="translate(153.000000, 39.000000)">
                            <path d="M13.2,22.8 C13.8624,22.8 14.4,23.3376 14.4,24 L16.8,24 C16.8,22.4376 15.7932,21.1176 14.4,20.6208 L14.4,18 L12,18 L12,20.6208 C10.6068,21.1176 9.6,22.4376 9.6,24 C9.6,25.9848 11.2152,27.6 13.2,27.6 C13.8624,27.6 14.4,28.1376 14.4,28.8 C14.4,29.4624 13.8624,30 13.2,30 C12.5376,30 12,29.4624 12,28.8 L9.6,28.8 C9.6,30.3624 10.6068,31.6824 12,32.1792 L12,34.8 L14.4,34.8 L14.4,32.1792 C15.7932,31.6824 16.8,30.3624 16.8,28.8 C16.8,26.8152 15.1848,25.2 13.2,25.2 C12.5376,25.2 12,24.6624 12,24 C12,23.3376 12.5376,22.8 13.2,22.8 Z" id="路径"></path>
                            <polygon id="路径" transform="translate(37.194424, 18.001976) rotate(-45.000000) translate(-37.194424, -18.001976) " points="25.3168181 16.802157 49.0720303 16.802157 49.0720303 19.2017946 25.3168181 19.2017946"></polygon>
                            <path d="M42,19.2 C40.0152,19.2 38.4,20.8152 38.4,22.8 C38.4,24.7848 40.0152,26.4 42,26.4 C43.9848,26.4 45.6,24.7848 45.6,22.8 C45.6,20.8152 43.9848,19.2 42,19.2 Z M42,24 C41.3376,24 40.8,23.4624 40.8,22.8 C40.8,22.1376 41.3376,21.6 42,21.6 C42.6624,21.6 43.2,22.1376 43.2,22.8 C43.2,23.4624 42.6624,24 42,24 Z" id="形状"></path>
                            <path d="M32.4,16.8 C34.3848,16.8 36,15.1848 36,13.2 C36,11.2152 34.3848,9.6 32.4,9.6 C30.4152,9.6 28.8,11.2152 28.8,13.2 C28.8,15.1848 30.4152,16.8 32.4,16.8 Z M32.4,12 C33.0624,12 33.6,12.5376 33.6,13.2 C33.6,13.8624 33.0624,14.4 32.4,14.4 C31.7376,14.4 31.2,13.8624 31.2,13.2 C31.2,12.5376 31.7376,12 32.4,12 Z" id="形状"></path>
                            <path d="M61.2,22.8 C61.8624,22.8 62.4,23.3376 62.4,24 L64.8,24 C64.8,22.4376 63.7932,21.1176 62.4,20.6208 L62.4,18 L60,18 L60,20.6208 C58.6068,21.1176 57.6,22.4376 57.6,24 C57.6,25.9848 59.2152,27.6 61.2,27.6 C61.8624,27.6 62.4,28.1376 62.4,28.8 C62.4,29.4624 61.8624,30 61.2,30 C60.5376,30 60,29.4624 60,28.8 L57.6,28.8 C57.6,30.3624 58.6068,31.6824 60,32.1792 L60,34.8 L62.4,34.8 L62.4,32.1792 C63.7932,31.6824 64.8,30.3624 64.8,28.8 C64.8,26.8152 63.1848,25.2 61.2,25.2 C60.5376,25.2 60,24.6624 60,24 C60,23.3376 60.5376,22.8 61.2,22.8 Z" id="路径"></path>
                            <path d="M61.2,13.2 C59.088,13.2 57.0504,13.7004 55.2,14.6544 L55.2,13.4664 L51.8376,12.6108 C51.6948,12.2292 51.534,11.844 51.3576,11.4636 L53.1324,8.4768 L46.722,2.0664 L43.7352,3.8412 C43.3548,3.6648 42.9696,3.504 42.588,3.3612 L41.7324,0 L32.6664,0 L31.812,3.3624 C31.4304,3.5052 31.0452,3.666 30.6648,3.8424 L27.678,2.0676 L21.2676,8.478 L23.0424,11.4648 C22.866,11.8452 22.7052,12.2304 22.5624,12.612 L19.2,13.4676 L19.2,14.6556 C17.3496,13.7004 15.312,13.2 13.2,13.2 C5.922,13.2 4.26325641e-15,19.122 4.26325641e-15,26.4 C4.26325641e-15,33.678 5.922,39.6 13.2,39.6 C18.5472,39.6 23.2788,36.384 25.3224,31.578 L27.6768,33.9324 L30.6636,32.1576 C31.044,32.334 31.4292,32.4948 31.8108,32.6376 L32.6676,36 L36,36 L36,48.834 C33.6096,45.4332 29.664,43.2 25.2,43.2 L19.2,43.2 L19.2,44.4 C19.2,51.678 25.122,57.6 32.4,57.6 L36,57.6 L36,60 L33.0372,60 L27.0372,67.2 L19.6584,67.2 L16.0584,74.4 L55.5372,74.4 L53.7372,67.2 L47.5416,67.2 L46.3416,64.8 L43.8,64.8 L40.2,60 L38.4,60 L38.4,57.6 L38.4,56.4 L38.4,52.8 L42,52.8 C49.278,52.8 55.2,46.878 55.2,39.6 L55.2,38.4 L49.2,38.4 C44.736,38.4 40.7904,40.6332 38.4,44.034 L38.4,36 L41.7324,36 L42.588,32.6376 C42.9696,32.4948 43.3548,32.334 43.7352,32.1576 L46.722,33.9324 L49.0764,31.578 C51.1212,36.384 55.8528,39.6 61.2,39.6 C68.478,39.6 74.4,33.678 74.4,26.4 C74.4,19.122 68.478,13.2 61.2,13.2 Z M40.8,64.8 L36.7032,64.8 L33.9516,67.5516 L35.6484,69.2484 L37.6968,67.2 L44.8584,67.2 L46.0584,69.6 L51.8628,69.6 L52.4628,72 L19.9416,72 L21.1416,69.6 L28.1628,69.6 L34.1628,62.4 L39,62.4 L40.8,64.8 Z M49.2,40.8 L52.7328,40.8 C52.134,46.1928 47.55,50.4 42,50.4 L38.4672,50.4 C39.066,45.0072 43.65,40.8 49.2,40.8 Z M32.4,55.2 C26.85,55.2 22.266,50.9928 21.6672,45.6 L25.2,45.6 C30.75,45.6 35.334,49.8072 35.9328,55.2 L32.4,55.2 Z M13.2,37.2 C7.2444,37.2 2.4,32.3556 2.4,26.4 C2.4,20.4444 7.2444,15.6 13.2,15.6 C15.354,15.6 17.4144,16.2408 19.2,17.4444 L19.2,22.5336 L22.5624,23.3892 C22.7052,23.7708 22.866,24.156 23.0424,24.5364 L21.2676,27.5232 L23.4588,29.7144 C22.0308,34.152 17.9088,37.2 13.2,37.2 Z M46.3452,30.9168 L43.8312,29.4216 L43.2396,29.7276 C42.5676,30.0744 41.8884,30.3588 41.2176,30.5736 L40.584,30.7752 L39.8676,33.6 L34.5336,33.6 L33.816,30.7752 L33.1824,30.5736 C32.5116,30.3588 31.8324,30.0744 31.1604,29.7276 L30.5688,29.4216 L28.0548,30.9168 L24.2832,27.1452 L25.7784,24.6312 L25.4724,24.0396 C25.1256,23.3676 24.8412,22.6884 24.6264,22.0176 L24.4248,21.384 L21.6,20.6676 L21.6,15.3336 L24.4248,14.616 L24.6264,13.9824 C24.8412,13.3116 25.1256,12.6324 25.4724,11.9604 L25.7784,11.3688 L24.2832,8.8548 L28.0548,5.0832 L30.5688,6.5784 L31.1604,6.2724 C31.8324,5.9256 32.5116,5.6412 33.1824,5.4264 L33.816,5.2248 L34.5324,2.4 L39.8664,2.4 L40.584,5.2248 L41.2176,5.4264 C41.8884,5.6412 42.5676,5.9256 43.2396,6.2724 L43.8312,6.5784 L46.3452,5.0832 L50.1168,8.8548 L48.6216,11.3688 L48.9276,11.9604 C49.2744,12.6324 49.5588,13.3116 49.7736,13.9824 L49.9752,14.616 L52.8,15.3324 L52.8,20.6664 L49.9752,21.384 L49.7736,22.0176 C49.5588,22.6884 49.2744,23.3676 48.9276,24.0396 L48.6216,24.6312 L50.1168,27.1452 L46.3452,30.9168 Z M61.2,37.2 C56.4912,37.2 52.3692,34.152 50.9412,29.7144 L53.1324,27.5232 L51.3576,24.5364 C51.534,24.156 51.6948,23.7708 51.8376,23.3892 L55.2,22.5324 L55.2,17.4432 C56.9856,16.2408 59.046,15.6 61.2,15.6 C67.1556,15.6 72,20.4444 72,26.4 C72,32.3556 67.1556,37.2 61.2,37.2 Z" id="形状"></path>
                        </g>
                    </g>
                </g>
            </g>
        </g>
    </g>
</svg>