<?xml version="1.0" encoding="UTF-8"?>
<svg width="75px" height="75px" viewBox="0 0 75 75" version="1.1" xmlns="http://www.w3.org/2000/svg" xmlns:xlink="http://www.w3.org/1999/xlink">
    <!-- Generator: Sketch 52.2 (67145) - http://www.bohemiancoding.com/sketch -->
    <title>lending</title>
    <desc>Created with Sketch.</desc>
    <g id="页面-1" stroke="none" stroke-width="1" fill="none" fill-rule="evenodd">
        <g id="Rampdefi备份" transform="translate(-1092.000000, -2530.000000)" fill="currentColor" fill-rule="nonzero">
            <g id="编组-54" transform="translate(119.000000, 2144.000000)">
                <g id="编组-40" transform="translate(0.000000, 345.000000)">
                    <g id="编组-28" transform="translate(410.000000, 0.000000)">
                        <g id="lending" transform="translate(563.000000, 41.000000)">
                            <path d="M36,40.8 C35.3376,40.8 34.8,40.2624 34.8,39.6 L32.4,39.6 C32.4,41.5848 34.0152,43.2 36,43.2 L36,45.6 L38.4,45.6 L38.4,43.2 L42,43.2 L42,39.6 C42,37.6152 40.3848,36 38.4,36 L36,36 C35.3376,36 34.8,35.4624 34.8,34.8 L34.8,33.6 L38.4,33.6 C39.0624,33.6 39.6,34.1376 39.6,34.8 L42,34.8 C42,32.8152 40.3848,31.2 38.4,31.2 L38.4,28.8 L36,28.8 L36,31.2 L32.4,31.2 L32.4,34.8 C32.4,36.7848 34.0152,38.4 36,38.4 L38.4,38.4 C39.0624,38.4 39.6,38.9376 39.6,39.6 L39.6,40.8 L36,40.8 Z" id="路径"></path>
                            <path d="M37.7676,50.3712 C44.592,50.0784 50.0784,44.592 50.3712,37.7676 C51.96,38.1864 53.5788,38.4 55.2,38.4 C65.7864,38.4 74.4,29.7864 74.4,19.2 C74.4,8.6136 65.7864,0 55.2,0 C44.6136,0 36,8.6136 36,19.2 C36,20.8212 36.2136,22.44 36.6324,24.0288 C29.808,24.3216 24.3216,29.808 24.0288,36.6324 C22.44,36.2136 20.8212,36 19.2,36 C8.6136,36 0,44.6136 0,55.2 C0,65.7864 8.6136,74.4 19.2,74.4 C29.7864,74.4 38.4,65.7864 38.4,55.2 C38.4,53.5788 38.1864,51.96 37.7676,50.3712 Z M50.2344,35.2176 C49.7496,32.0208 48.1236,29.1972 45.7728,27.1836 C46.8732,25.2 48.5388,23.634 50.5308,22.6752 C50.9316,24.414 52.278,25.782 53.9988,26.2296 L53.9988,33.6 L56.3988,33.6 L56.3988,26.2296 C58.1196,25.782 59.466,24.4152 59.8668,22.6764 C63.3924,24.3756 65.8536,27.9276 65.982,32.0664 C63.0624,34.5168 59.3028,36 55.2,36 C53.5308,36 51.8652,35.7264 50.2344,35.2176 Z M50.4,14.4 C50.4,11.7528 52.5528,9.6 55.2,9.6 C57.8472,9.6 60,11.7528 60,14.4 C60,17.0472 57.8472,19.2 55.2,19.2 C52.5528,19.2 50.4,17.0472 50.4,14.4 Z M55.2,24 C53.9772,24 52.9764,23.0772 52.83,21.8928 C53.6004,21.7176 54.3888,21.6 55.2,21.6 C56.016,21.6 56.808,21.6984 57.5724,21.8712 C57.4356,23.0652 56.43,24 55.2,24 Z M55.2,2.4 C64.464,2.4 72,9.936 72,19.2 C72,23.256 70.5552,26.9808 68.1528,29.886 C67.266,25.3068 64.0032,21.576 59.7036,20.0076 C61.3452,18.6876 62.4,16.6656 62.4,14.4 C62.4,10.4292 59.1708,7.2 55.2,7.2 C51.2292,7.2 48,10.4292 48,14.4 C48,16.662 49.0512,18.6816 50.688,20.0028 C47.814,21.0516 45.3564,23.082 43.788,25.7784 C42.3924,24.9708 40.8384,24.4164 39.1824,24.1656 C38.6736,22.5348 38.4,20.8692 38.4,19.2 C38.4,9.936 45.936,2.4 55.2,2.4 Z M37.2,26.4 C43.1556,26.4 48,31.2444 48,37.2 C48,43.1556 43.1556,48 37.2,48 C31.2444,48 26.4,43.1556 26.4,37.2 C26.4,31.2444 31.2444,26.4 37.2,26.4 Z M8.4168,68.0652 C8.5188,64.77 10.0968,61.8456 12.5172,59.9316 L13.4388,68.22 L19.2,63.9 L24.9612,68.22 L25.8828,59.9316 C28.3044,61.8456 29.8824,64.77 29.9832,68.0652 C27.0624,70.5168 23.3028,72 19.2,72 C15.0972,72 11.3376,70.5168 8.4168,68.0652 Z M14.4,50.4 C14.4,47.7528 16.5528,45.6 19.2,45.6 C21.8472,45.6 24,47.7528 24,50.4 C24,53.0472 21.8472,55.2 19.2,55.2 C16.5528,55.2 14.4,53.0472 14.4,50.4 Z M19.2,60.5256 L16.9608,57.8376 C17.6832,57.684 18.432,57.6 19.2,57.6 C19.968,57.6 20.7168,57.684 21.4392,57.8364 L19.2,60.5256 Z M23.568,59.0328 L23.04,63.7788 L20.9316,62.1972 L23.568,59.0328 Z M15.3612,63.7788 L14.8332,59.0328 L17.4696,62.1972 L15.3612,63.7788 Z M32.1528,65.886 C31.266,61.3068 28.0032,57.576 23.7036,56.0076 C25.3452,54.6876 26.4,52.6656 26.4,50.4 C26.4,46.4292 23.1708,43.2 19.2,43.2 C15.2292,43.2 12,46.4292 12,50.4 C12,52.6656 13.0548,54.6876 14.6952,56.0088 C10.3956,57.5772 7.134,61.3068 6.246,65.8872 C3.8448,62.9808 2.4,59.256 2.4,55.2 C2.4,45.936 9.936,38.4 19.2,38.4 C20.8692,38.4 22.5348,38.6736 24.1656,39.1824 C25.0284,44.8728 29.5272,49.3704 35.2176,50.2344 C35.7264,51.8652 36,53.5308 36,55.2 C36,59.256 34.5552,62.9808 32.1528,65.886 Z" id="形状"></path>
                            <path d="M50.4,54 L55.1448,54 C54.6504,59.3268 50.9004,63.924 45.6864,65.4132 L38.4,67.4952 L38.4,70.8 L46.8,70.8 C56.322,70.8 64.14,63.3684 64.7604,54 L69.6,54 L60,41.1996 L50.4,54 Z M62.4,51.6 L62.4,52.8 C62.4,61.4016 55.4016,68.4 46.8,68.4 L43.9692,68.4 L46.3452,67.722 C52.9728,65.8272 57.6,59.6916 57.6,52.8 L57.6,51.6 L55.2,51.6 L60,45.2004 L64.8,51.6 L62.4,51.6 Z" id="形状"></path>
                            <path d="M24,20.4 L19.2552,20.4 C19.7496,15.0732 23.4996,10.476 28.7136,8.9868 L36,6.9048 L36,3.6 L27.6,3.6 C18.078,3.6 10.26,11.0316 9.6396,20.4 L4.8,20.4 L14.4,33.2004 L24,20.4 Z M12,22.8 L12,21.6 C12,12.9984 18.9984,6 27.6,6 L30.4308,6 L28.0548,6.678 C21.4272,8.5728 16.8,14.7084 16.8,21.6 L16.8,22.8 L19.2,22.8 L14.4,29.1996 L9.6,22.8 L12,22.8 Z" id="形状"></path>
                        </g>
                    </g>
                </g>
            </g>
        </g>
    </g>
</svg>