<?xml version="1.0" encoding="UTF-8"?>
<svg width="45px" height="44px" viewBox="0 0 45 44" version="1.1" xmlns="http://www.w3.org/2000/svg" xmlns:xlink="http://www.w3.org/1999/xlink">
    <!-- Generator: Sketch 52.2 (67145) - http://www.bohemiancoding.com/sketch -->
    <title>编组 7备份</title>
    <desc>Created with Sketch.</desc>
    <g id="页面-1" stroke="none" stroke-width="1" fill="none" fill-rule="evenodd">
        <g id="Rampdefi备份" transform="translate(-1197.000000, -4789.000000)">
            <g id="编组-5" transform="translate(179.000000, 4535.000000)">
                <g id="编组-7备份" transform="translate(1018.347826, 254.000000)">
                    <circle id="椭圆形" fill="#FFFFFF" cx="22" cy="22" r="22"></circle>
                    <g id="Linkedin" fill="#0073B1" fill-rule="nonzero">
                        <path d="M22.0000256,44.0000512 C9.84939427,44.0000512 0,34.1506569 0,22.0000256 C0,9.84939427 9.84939427,0 22.0000256,0 C34.1506569,0 44.0000512,9.84939427 44.0000512,22.0000256 C44.0000512,34.1506569 34.1506569,44.0000512 22.0000256,44.0000512 Z M16.0805578,31.6946892 L16.0805578,17.0749417 L11.6805527,17.0749417 L11.6805527,31.6946892 L16.0805578,31.6946892 Z M13.8805552,10.7066648 C12.4615536,10.7066648 11.5353525,11.6930007 11.5639525,13.0093327 C11.5346191,14.2647994 12.4615536,15.2812006 13.8519552,15.2812006 C15.2988221,15.2812006 16.2257579,14.2647994 16.2257579,13.0085979 C16.1964246,11.6929964 15.2988221,10.7066605 13.8805552,10.7066605 L13.8805552,10.7066648 Z M19.6130228,31.6946892 L24.0130279,31.6946892 L24.0130279,23.2635661 C24.0130279,22.8455656 24.0716945,22.3967651 24.1875616,22.1268996 C24.4764954,21.2908986 25.2002976,20.4233628 26.416899,20.4233628 C28.0082356,20.4233628 28.6462363,21.7088991 28.6462363,23.5928318 L28.6462363,31.6947279 L33.0462415,31.6947279 L33.0462415,23.0245264 C33.0462415,18.719869 30.8755737,16.7457105 27.9796184,16.7457105 C25.6351504,16.7457105 24.1875487,18.1515121 23.6082305,19.0777132 L23.5209639,19.0777132 L23.3185636,17.0749761 L19.4971592,17.0749761 C19.5550927,18.3605124 19.6130258,19.9151794 19.6130258,21.7389815 L19.6130258,31.6947236 L19.6130228,31.6946892 Z" id="形状"></path>
                    </g>
                </g>
            </g>
        </g>
    </g>
</svg>